<?xml version="1.0" encoding="UTF-8" standalone="no"?>
<!-- Created with Inkscape (http://www.inkscape.org/) -->

<svg
   width="1000mm"
   height="500mm"
   viewBox="0 0 1000 500"
   version="1.1"
   id="svg1"
   xmlns="http://www.w3.org/2000/svg"
   xmlns:svg="http://www.w3.org/2000/svg">
  <defs
     id="defs1">
    <rect
       x="-163.69377"
       y="-2050.9866"
       width="1030.3078"
       height="674.03317"
       id="rect4" />
    <clipPath
       clipPathUnits="userSpaceOnUse"
       id="clipPath28">
      <rect
         style="fill:#5c5c5c;fill-opacity:1;stroke-width:0.264583"
         id="rect28"
         width="1000"
         height="250"
         x="0"
         y="0"
         ry="3.6638081" />
    </clipPath>
    <clipPath
       clipPathUnits="userSpaceOnUse"
       id="clipPath30">
      <rect
         style="display:inline;fill:#dfdfdf;fill-opacity:1;stroke-width:0.264583"
         id="rect31"
         width="1000"
         height="250"
         x="0"
         y="250"
         ry="3.6638081" />
    </clipPath>
    <clipPath
       clipPathUnits="userSpaceOnUse"
       id="clipPath69">
      <rect
         style="display:inline;fill:#5c5c5c;fill-opacity:1;stroke-width:0.264583"
         id="rect69"
         width="1000"
         height="250"
         x="0"
         y="0"
         ry="3.6638081" />
    </clipPath>
    <clipPath
       clipPathUnits="userSpaceOnUse"
       id="clipPath32">
      <rect
         style="fill:#e6c300;fill-opacity:1;stroke-width:0.264583"
         id="rect33"
         width="20.36558"
         height="50.870243"
         x="141.68498"
         y="211.2601"
         ry="0" />
    </clipPath>
    <clipPath
       clipPathUnits="userSpaceOnUse"
       id="clipPath32-1">
      <rect
         style="fill:#e6c300;fill-opacity:1;stroke-width:0.264583"
         id="rect33-9"
         width="20.36558"
         height="50.870243"
         x="141.68498"
         y="211.2601"
         ry="0" />
    </clipPath>
    <clipPath
       clipPathUnits="userSpaceOnUse"
       id="clipPath32-0">
      <rect
         style="fill:#e6c300;fill-opacity:1;stroke-width:0.264583"
         id="rect33-4"
         width="20.36558"
         height="50.870243"
         x="141.68498"
         y="211.2601"
         ry="0" />
    </clipPath>
    <clipPath
       clipPathUnits="userSpaceOnUse"
       id="clipPath51">
      <rect
         style="display:inline;fill:#5c5c5c;fill-opacity:1;stroke-width:0.264583"
         id="rect51"
         width="1000"
         height="250"
         x="-293.21271"
         y="-130.7747"
         ry="3.6638081" />
    </clipPath>
    <clipPath
       clipPathUnits="userSpaceOnUse"
       id="clipPath52">
      <rect
         style="display:inline;fill:#dfdfdf;fill-opacity:1;stroke-width:0.264583"
         id="rect52"
         width="1000"
         height="250"
         x="-293.21271"
         y="119.22529"
         ry="3.6638081" />
    </clipPath>
    <clipPath
       clipPathUnits="userSpaceOnUse"
       id="clipPath70">
      <rect
         style="display:inline;fill:#5c5c5c;fill-opacity:1;stroke-width:0.264583"
         id="rect70"
         width="1000"
         height="250"
         x="-293.21268"
         y="-190.03172"
         ry="3.6638081" />
    </clipPath>
    <clipPath
       clipPathUnits="userSpaceOnUse"
       id="clipPath72">
      <rect
         style="display:inline;fill:#dfdfdf;fill-opacity:1;stroke-width:0.264583"
         id="rect73"
         width="1000"
         height="250"
         x="-293.21268"
         y="59.968281"
         ry="3.6638081" />
    </clipPath>
    <clipPath
       clipPathUnits="userSpaceOnUse"
       id="clipPath21">
      <rect
         style="display:inline;fill:#000000;fill-opacity:1;stroke-width:0.264583"
         id="rect22"
         width="1000"
         height="250"
         x="-293.21271"
         y="-128.12886"
         ry="3.6638081" />
    </clipPath>
    <clipPath
       clipPathUnits="userSpaceOnUse"
       id="clipPath22">
      <rect
         style="display:inline;fill:#dfdfdf;fill-opacity:1;stroke-width:0.264583"
         id="rect23"
         width="1000"
         height="250"
         x="-293.21271"
         y="121.87114"
         ry="3.6638081" />
    </clipPath>
    <clipPath
       clipPathUnits="userSpaceOnUse"
       id="clipPath43">
      <rect
         style="display:inline;fill:#000000;fill-opacity:1;stroke-width:0.264583"
         id="rect43"
         width="1000"
         height="250"
         x="-293.21268"
         y="-189.98718"
         ry="3.6638081" />
    </clipPath>
    <clipPath
       clipPathUnits="userSpaceOnUse"
       id="clipPath44">
      <rect
         style="display:inline;fill:#dfdfdf;fill-opacity:1;stroke-width:0.264583"
         id="rect44"
         width="1000"
         height="250"
         x="-293.21268"
         y="60.012821"
         ry="3.6638081" />
    </clipPath>
  </defs>
  <path
     id="f_red_1"
     style="display:inline;fill:#000000;fill-opacity:1;font-weight:bold;font-size:57.4124px;font-family:'IBM Plex Sans';-inkscape-font-specification:'IBM Plex Sans, Bold';stroke-width:0.264582"
     d="m 105.88131,23.994591 -5.68389,11.137821 5.0524,2.4691 7.69307,-10.104809 z m 238.75493,0 -5.68389,11.137821 5.05241,2.4691 7.69307,-10.104809 z M 229.19161,39.323888 c -3.13854,0 -5.83689,0.516353 -8.09511,1.549776 -2.21995,1.033423 -3.94233,2.469 -5.16713,4.306197 -1.18652,1.798921 -1.77974,3.904056 -1.77974,6.315377 0,2.219946 0.44002,4.171876 1.32034,5.855973 0.88032,1.645822 2.21995,2.985453 4.01887,4.018876 1.8372,0.995149 4.15279,1.683791 6.94686,2.066541 l 3.96152,0.516764 c 1.26307,0.1531 2.21995,0.440422 2.87063,0.861446 0.68895,0.38275 1.14856,0.880017 1.37821,1.492416 0.26792,0.574124 0.40152,1.225111 0.40152,1.952335 0,1.454448 -0.51635,2.621789 -1.54977,3.502112 -1.03342,0.880324 -2.62221,1.320333 -4.7656,1.320333 -1.95203,0 -3.78893,-0.382752 -5.5113,-1.14825 -1.6841,-0.765499 -3.19602,-1.913754 -4.53564,-3.444751 l -5.74125,5.798612 c 1.72237,1.875472 3.80842,3.425565 6.25802,4.650362 2.48786,1.224798 5.47302,1.837614 8.95604,1.837614 3.32992,0 6.16238,-0.555042 8.49716,-1.665015 2.33476,-1.109973 4.09532,-2.64098 5.28184,-4.593001 1.2248,-1.952022 1.83762,-4.210359 1.83762,-6.77478 0,-2.296496 -0.44053,-4.248427 -1.32085,-5.855973 -0.88033,-1.607548 -2.21996,-2.909007 -4.01888,-3.904155 -1.79892,-0.995149 -4.07635,-1.703394 -6.83214,-2.124418 l -3.961,-0.631486 c -1.10997,-0.191375 -2.02867,-0.440008 -2.7559,-0.746208 -0.68895,-0.306199 -1.20582,-0.746209 -1.55029,-1.320333 -0.3062,-0.574124 -0.45941,-1.320541 -0.45941,-2.239139 0,-1.224798 0.4787,-2.181677 1.43557,-2.870626 0.95688,-0.688949 2.41102,-1.033529 4.36304,-1.033529 2.06685,0 3.77014,0.363666 5.10977,1.09089 1.37789,0.688948 2.54524,1.58857 3.50211,2.698543 l 5.79861,-5.85649 c -1.64582,-1.798922 -3.61684,-3.176725 -5.91333,-4.133598 -2.2965,-0.995148 -4.95667,-1.492415 -7.98039,-1.492415 z m 37.36309,0 c -3.52129,0 -6.62147,0.784589 -9.30072,2.353861 -2.64097,1.569273 -4.68884,3.884869 -6.1433,6.946863 -1.45444,3.061995 -2.18126,6.870425 -2.18126,11.425142 0,3.980593 0.55453,7.405756 1.6645,10.276376 1.14825,2.832345 2.7752,5.109769 4.88032,6.832141 2.10512,1.684097 4.57392,2.79418 7.40627,3.330029 v 1.665015 c 0,2.755794 0.70773,4.860929 2.1239,6.315377 1.41617,1.454447 3.67451,2.181779 6.77478,2.181779 h 5.39709 v -7.119463 h -6.1433 v -3.21479 c 2.71752,-0.574124 5.05221,-1.722379 7.00423,-3.444751 1.95202,-1.722372 3.46394,-3.980711 4.53564,-6.774781 1.0717,-2.832345 1.60765,-6.181164 1.60765,-10.046932 0,-4.554717 -0.72733,-8.363147 -2.18178,-11.425142 -1.45445,-3.061994 -3.50233,-5.37759 -6.14329,-6.946863 -2.64098,-1.569272 -5.74116,-2.353861 -9.30073,-2.353861 z M 51.427782,40.012735 v 40.073522 h 15.099337 c 3.559569,0 6.659754,-0.746417 9.300724,-2.239139 2.64097,-1.492723 4.688847,-3.712372 6.143295,-6.659542 1.454448,-2.985445 2.181779,-6.69793 2.181779,-11.137822 0,-4.439892 -0.727331,-8.133807 -2.181779,-11.080977 -1.454448,-2.985445 -3.502325,-5.22418 -6.143295,-6.716903 -2.64097,-1.492722 -5.741155,-2.239139 -9.300724,-2.239139 z m 39.239466,0 v 40.073522 h 5.45393 21.816752 5.45394 v -7.750431 h -5.45394 -13.09015 -5.453933 v -8.669238 h 5.453933 10.44897 5.45445 v -7.693587 h -5.45445 -10.44897 -5.453933 v -8.209835 h 5.453933 13.09015 5.45394 v -7.750431 h -5.45394 -21.816752 z m 40.813532,0 v 40.073522 h 8.20983 v -20.09438 -6.602181 h 0.17208 l 3.04323,6.315377 7.63571,14.123685 7.80831,-14.181046 2.92798,-5.855974 h 0.17209 v 6.200139 20.09438 h 8.20983 V 40.012735 h -9.30072 l -5.28185,10.219531 -4.42092,8.554 h -0.11472 l -4.47828,-8.554 -5.33921,-10.219531 z m 55.89478,0 -13.20488,40.073522 h 8.84132 l 2.87062,-9.530167 h 13.37697 l 2.87062,9.530167 h 9.07128 L 198.16921,40.012735 Z m 102.06818,0 v 23.653853 c 0,3.942318 0.51687,7.176621 1.5503,9.702767 1.03342,2.526145 2.69854,4.401215 4.99504,5.626013 2.2965,1.186523 5.35851,1.780253 9.186,1.780253 3.8275,0 6.88951,-0.59373 9.18601,-1.780253 2.2965,-1.224798 3.9611,-3.099868 4.99452,-5.626013 1.03343,-2.526146 1.5503,-5.760449 1.5503,-9.702767 V 40.012735 h -8.49716 v 24.572143 c 0,1.875472 -0.24863,3.445167 -0.74621,4.70824 -0.49757,1.224798 -1.28216,2.162591 -2.35386,2.813265 -1.03342,0.612398 -2.41122,0.91829 -4.1336,0.91829 -1.72237,0 -3.11977,-0.305892 -4.19147,-0.91829 -1.07169,-0.650674 -1.85629,-1.588467 -2.35386,-2.813265 -0.4593,-1.263073 -0.68885,-2.832768 -0.68885,-4.70824 V 40.012735 Z m 39.97793,0 v 40.073522 h 5.45444 21.81676 5.45393 v -7.750431 h -5.45393 -13.09016 -5.45393 v -8.669238 h 5.45393 10.44898 5.45445 v -7.693587 h -5.45445 -10.44898 -5.45393 v -8.209835 h 5.45393 13.09016 5.45393 v -7.750431 h -5.45393 -21.81676 z m -62.86697,7.061584 c 1.76065,0 3.25348,0.401838 4.47828,1.205611 1.26308,0.765499 2.21995,1.894668 2.87063,3.38739 0.68894,1.454448 1.03353,3.253174 1.03353,5.39657 v 5.971212 c 0,2.105121 -0.34459,3.903848 -1.03353,5.39657 -0.65068,1.492722 -1.60755,2.640977 -2.87063,3.444751 -1.2248,0.765498 -2.71763,1.14825 -4.47828,1.14825 -1.72237,0 -3.2152,-0.382752 -4.47828,-1.14825 -1.26307,-0.803774 -2.23904,-1.952029 -2.92798,-3.444751 -0.65068,-1.492722 -0.97565,-3.291449 -0.97565,-5.39657 V 57.06389 c 0,-2.143396 0.32497,-3.942122 0.97565,-5.39657 0.68894,-1.492722 1.66491,-2.621891 2.92798,-3.38739 1.26308,-0.803773 2.75591,-1.205611 4.47828,-1.205611 z M 60.154381,47.763166 h 6.372738 c 1.722372,0 3.215207,0.325494 4.47828,0.976168 1.263072,0.650674 2.219951,1.645724 2.870625,2.985347 0.688949,1.339623 1.033529,3.081091 1.033529,5.224487 v 6.200656 c 0,2.10512 -0.34458,3.846589 -1.033529,5.224487 -0.650674,1.339623 -1.607553,2.334673 -2.870625,2.985347 -1.263073,0.650674 -2.755908,0.976168 -4.47828,0.976168 H 60.154381 Z M 192.3706,47.935765 h 0.2868 l 2.00918,6.888985 2.4691,8.325074 h -9.186 l 2.46858,-8.325074 z"
     transform="translate(293.21268,189.98718)" />
  <path
     id="e_blue_1"
     style="font-weight:bold;font-size:57.4124px;font-family:'IBM Plex Sans';-inkscape-font-specification:'IBM Plex Sans, Bold';display:none;fill:#0900f2;fill-opacity:1;stroke-width:0.264582"
     d="m 229.19158,101.14552 c -3.13854,0 -5.83689,0.51635 -8.09511,1.54977 -2.21995,1.03342 -3.94233,2.469 -5.16713,4.3062 -1.18652,1.79892 -1.77974,3.90406 -1.77974,6.31538 0,2.21994 0.44002,4.17187 1.32034,5.85597 0.88032,1.64582 2.21995,2.98546 4.01887,4.01888 1.8372,0.99515 4.15279,1.68379 6.94686,2.06654 l 3.96152,0.51676 c 1.26307,0.1531 2.21995,0.44042 2.87063,0.86145 0.68895,0.38274 1.14856,0.88001 1.37821,1.49241 0.26792,0.57413 0.40152,1.22512 0.40152,1.95234 0,1.45445 -0.51635,2.62178 -1.54977,3.50211 -1.03342,0.88032 -2.62221,1.32033 -4.7656,1.32033 -1.95203,0 -3.78893,-0.38275 -5.5113,-1.14825 -1.6841,-0.7655 -3.19602,-1.91375 -4.53564,-3.44475 l -5.74125,5.79861 c 1.72237,1.87548 3.80842,3.42557 6.25802,4.65037 2.48786,1.22479 5.47302,1.83761 8.95604,1.83761 3.32992,0 6.16238,-0.55505 8.49716,-1.66501 2.33476,-1.10998 4.09532,-2.64098 5.28184,-4.59301 1.2248,-1.95202 1.83762,-4.21036 1.83762,-6.77478 0,-2.29649 -0.44053,-4.24842 -1.32085,-5.85597 -0.88033,-1.60755 -2.21996,-2.90901 -4.01888,-3.90415 -1.79892,-0.99515 -4.07635,-1.70339 -6.83214,-2.12442 l -3.961,-0.63149 c -1.10997,-0.19138 -2.02867,-0.44001 -2.7559,-0.7462 -0.68895,-0.3062 -1.20582,-0.74621 -1.55029,-1.32034 -0.3062,-0.57412 -0.45941,-1.32054 -0.45941,-2.23914 0,-1.2248 0.4787,-2.18168 1.43557,-2.87062 0.95688,-0.68896 2.41102,-1.03353 4.36304,-1.03353 2.06685,0 3.77014,0.36366 5.10977,1.09089 1.37789,0.68894 2.54524,1.58805 3.50211,2.69802 l 5.79861,-5.85597 c -1.64582,-1.79893 -3.61684,-3.17672 -5.91333,-4.1336 -2.2965,-0.99514 -4.95667,-1.49241 -7.98039,-1.49241 z m -177.763828,0.68884 v 23.65386 c 0,3.94232 0.51687,7.17662 1.550293,9.70276 1.033424,2.52614 2.698031,4.40122 4.994527,5.62602 2.296496,1.18652 5.35851,1.78025 9.186003,1.78025 3.827493,0 6.889507,-0.59373 9.186003,-1.78025 2.296496,-1.2248 3.96162,-3.09988 4.995044,-5.62602 1.033423,-2.52614 1.550293,-5.76044 1.550293,-9.70276 v -23.65386 h -8.497156 v 24.57215 c 0,1.87547 -0.249151,3.44517 -0.746725,4.70824 -0.497574,1.2248 -1.282163,2.16207 -2.353861,2.81275 -1.033424,0.6124 -2.411226,0.9188 -4.133598,0.9188 -1.722372,0 -3.119261,-0.3064 -4.190959,-0.9188 -1.071698,-0.65068 -1.856287,-1.58795 -2.353861,-2.81275 -0.459299,-1.26307 -0.688847,-2.83277 -0.688847,-4.70824 v -24.57215 z m 39.239466,0 v 40.07353 h 8.209834 V 123.30644 114.924 h 0.172083 l 3.846795,8.03776 10.96574,18.94613 h 9.53017 V 101.83436 H 115.182 v 18.60145 8.38244 h -0.17208 l -3.8468,-8.03776 -10.96573,-18.94613 z m 40.813532,0 v 40.07353 h 8.20983 v -20.09438 -6.60218 h 0.17208 l 3.04323,6.31537 7.63571,14.12317 7.80831,-14.18053 2.92798,-5.85597 h 0.17209 v 6.20014 20.09438 h 8.20983 v -40.07353 h -9.30072 l -5.28185,10.21902 -4.42092,8.55452 h -0.11472 l -4.47828,-8.55452 -5.33921,-10.21902 z m 55.89478,0 -13.20488,40.07353 h 8.84132 l 2.87062,-9.53017 h 13.37748 l 2.87063,9.53017 h 9.07076 l -13.03228,-40.07353 z m 61.55386,0 v 40.07353 h 8.7266 v -11.13782 l 5.22449,-6.31538 10.62106,17.4532 h 10.27689 l -14.6973,-23.5965 13.49169,-16.47703 h -9.87485 l -9.01392,11.30991 -5.68389,7.75095 h -0.34417 v -7.75095 -11.30991 z m 40.51432,0 v 40.07353 h 5.45445 21.81676 5.45393 v -7.75043 h -5.45393 -18.54409 v -8.66924 h 15.90291 5.45444 v -7.69359 h -5.45444 -15.90291 v -8.20983 h 18.54409 5.45393 v -7.75044 h -5.45393 -21.81676 z m 39.97793,0 v 40.07353 h 15.09985 c 3.55957,0 6.65976,-0.74642 9.30072,-2.23914 2.64098,-1.49272 4.68834,-3.71237 6.14278,-6.65954 1.45445,-2.98544 2.18178,-6.69793 2.18178,-11.13783 0,-4.43989 -0.72733,-8.13381 -2.18178,-11.08097 -1.45444,-2.98545 -3.5018,-5.22418 -6.14278,-6.71691 -2.64096,-1.49272 -5.74115,-2.23914 -9.30072,-2.23914 z m 8.72711,7.75044 h 6.37274 c 1.72237,0 3.21469,0.32548 4.47776,0.97616 1.26308,0.65068 2.21996,1.64573 2.87063,2.98535 0.68895,1.33962 1.03353,3.08109 1.03353,5.22449 v 6.20065 c 0,2.10512 -0.34458,3.84659 -1.03353,5.22449 -0.65067,1.33962 -1.60755,2.33467 -2.87063,2.98535 -1.26307,0.65067 -2.75539,0.97617 -4.47776,0.97617 h -6.37274 z m -145.77818,0.17208 h 0.2868 l 2.0097,6.8895 2.46858,8.32507 h -9.186 l 2.46858,-8.32507 z"
     transform="translate(293.21271,128.12886)" />
</svg>
