<?xml version="1.0" encoding="UTF-8" standalone="no"?>
<!-- Created with Inkscape (http://www.inkscape.org/) -->

<svg
   width="148.95064mm"
   height="107.70021mm"
   viewBox="0 0 148.95064 107.70021"
   version="1.1"
   id="svg1"
   xml:space="preserve"
   inkscape:version="1.4 (e7c3feb1, 2024-10-09)"
   sodipodi:docname="Lo.svg"
   xmlns:inkscape="http://www.inkscape.org/namespaces/inkscape"
   xmlns:sodipodi="http://sodipodi.sourceforge.net/DTD/sodipodi-0.dtd"
   xmlns="http://www.w3.org/2000/svg"
   xmlns:svg="http://www.w3.org/2000/svg"><sodipodi:namedview
     id="namedview1"
     pagecolor="#ffffff"
     bordercolor="#000000"
     borderopacity="0.25"
     inkscape:showpageshadow="2"
     inkscape:pageopacity="0.0"
     inkscape:pagecheckerboard="0"
     inkscape:deskcolor="#d1d1d1"
     inkscape:document-units="mm"
     inkscape:zoom="0.51161194"
     inkscape:cx="278.53142"
     inkscape:cy="252.14423"
     inkscape:window-width="1416"
     inkscape:window-height="775"
     inkscape:window-x="0"
     inkscape:window-y="33"
     inkscape:window-maximized="0"
     inkscape:current-layer="layer1" /><defs
     id="defs1" /><g
     inkscape:label="Layer 1"
     inkscape:groupmode="layer"
     id="layer1"
     transform="translate(-30.908122,-39.46393)"><g
       id="g10"
       transform="matrix(0.03527778,0,0,-0.03527778,30.908052,147.16417)"><path
         d="m 2915.54,56.9492 c 470.3,64.9918 812.86,434.5708 969.1,939.5818 64.02,208.909 73.52,440.599 50.84,683.319 -41.39,432.71 -240.2,808.67 -530.36,1082.77 -1.08,1.26 -1.77,1.7 -2.04,0.49 -0.88,-1.25 -3.25,-2.68 -4.61,-3.44 -1.56,-0.92 -2.04,-0.15 -0.96,-2 307.82,-281.76 505.6,-729.53 527.11,-1182.31 33.27,-646.301 -280.79,-1219.11 -751.42,-1416.09 -79.08,-33.29 -161.61,-58.821 -247.88,-71.8403 -5.97,-7.7813 -9.64,-18.5313 -9.78,-30.4805"
         style="fill:#100f0d;fill-opacity:1;fill-rule:evenodd;stroke:none"
         id="path12" /><path
         d="m 4088.2,1136.75 c -38.62,-45.74 -99.57,-90.47 -165.47,-73.09 -3.26,-5.23 -20.91,-30.48 -23.15,-34.35 -2.98,-4.81 -8.55,-9.47 -12.9,-5.43 -2.51,1.87 -4.81,5.43 -2.04,11.37 9.45,11.95 19.09,24.06 30,36.83 19.35,102.79 47.59,171.04 106.84,240.34 68.28,79.34 138.53,114.9 181.7,129.7 6.44,1.87 12.15,3.43 18.4,5.3 4.33,-39.64 -14.06,-97.34 -28.31,-130.63 -27.83,-67.16 -58.03,-126.21 -105.07,-180.04"
         style="fill:#100f0d;fill-opacity:1;fill-rule:evenodd;stroke:none"
         id="path14" /><path
         d="m 3522.07,2582.11 c 5.43,-2.17 37.47,-10.57 41.33,-4.02 1.36,1.85 -0.41,8.06 -3.26,8.54 -11.67,1.26 -24.71,2.16 -36.1,4.5 -20.43,65.02 -78.13,93.29 -130.87,104.2 -63.32,12.72 -133.1,-6.7 -207.75,-17.12 -3.75,-0.78 -7.95,-1.09 -11.62,-1.26 1.09,-2.46 2.92,-4.31 4.62,-6.65 31.43,-42.76 80.09,-81.82 128.01,-101.23 31.84,-13.55 70.38,-21.01 108.19,-19.76 39.51,0.96 73.1,10.1 107.45,32.8"
         style="fill:#100f0d;fill-opacity:1;fill-rule:evenodd;stroke:none"
         id="path16" /><path
         d="m 3398.47,2759.67 c -2.52,-0.92 -2.65,-0.15 -7.13,2.67 -9.1,8.24 -16.49,13.37 -25.58,21.61 -50.77,-0.35 -98.9,14.6 -144.45,45.05 -20.15,13.71 -40.38,30.04 -57.28,49.64 -40.52,43.52 -73.17,107.12 -88.1,165.42 -0.82,3.28 -1.35,5.6 -1.56,8.86 3.8,-1.56 7.2,-3.26 10.93,-4.99 82.13,-32.8 161.27,-48.19 227.18,-111.91 44.59,-42.47 67.94,-94.07 58.64,-144.16 10.04,-8.07 20.76,-15.54 30.4,-25.03 4.69,-3.43 -0.4,-6.99 -3.05,-7.16"
         style="fill:#100f0d;fill-opacity:1;fill-rule:evenodd;stroke:none"
         id="path18" /><path
         d="m 3696.5,2309.57 c 5.43,-2.97 36.52,-18.97 41.06,-13.68 2.04,1.99 1.09,8.86 -1.76,9.93 -11.47,4.38 -25.18,7.16 -36.04,12.13 -4.34,45.86 -29.86,88.91 -81.18,118.49 -78.06,41.37 -166.96,34.51 -250.45,41.98 -4.21,0.31 -7.94,0.6 -11.68,0.95 1.29,-2.32 2.51,-4.67 3.6,-7.16 27.96,-48.07 72.89,-100 119.25,-129.69 30.75,-20.68 68.83,-36.39 106.63,-43.86 39.64,-7.43 74.06,-3.11 110.57,10.91"
         style="fill:#100f0d;fill-opacity:1;fill-rule:evenodd;stroke:none"
         id="path20" /><path
         d="m 4105.84,1599.45 c -25.44,-56.88 -70.85,-119.55 -137.37,-123.73 -2.17,-5.77 -14.31,-33.29 -16.01,-37.64 -1.43,-5.9 -5.64,-12.42 -11.21,-9.64 -2.37,0.92 -5.15,4.21 -4.55,10.26 6.6,15.37 14.33,27.21 21.79,42.75 -6.03,104.63 0,181.16 40.05,267.44 45.41,99.37 108.26,156.25 146.68,184.25 4.81,4.17 10.11,7.64 15.67,11.16 8.76,-40.38 6.12,-103.37 0.69,-139.75 -10.12,-74.31 -26.14,-138.58 -55.74,-205.1"
         style="fill:#100f0d;fill-opacity:1;fill-rule:evenodd;stroke:none"
         id="path22" /><path
         d="m 4030.91,2020.03 c -10.99,-60.78 -38.41,-122.19 -99.23,-148.59 -0.61,-6.4 -7.52,-35.94 -8.35,-40.45 0,-6.25 -2.16,-13.36 -8.21,-12.58 -1.9,0.46 -6.1,2.01 -6.37,8.37 2.5,15.87 7.12,34.09 10.24,51.47 -20.29,73.86 -31.22,141.31 -27.69,213.8 5.63,101.66 43.51,189.83 103.24,261.08 4.55,5.25 8.21,10.55 12.28,15.35 16.84,-34.96 27.83,-94.97 30.95,-130.74 6.18,-73.1 5.91,-146.47 -6.86,-217.71"
         style="fill:#100f0d;fill-opacity:1;fill-rule:evenodd;stroke:none"
         id="path24" /><path
         d="m 3877.66,2403.76 c 1.5,-62.65 -13.38,-132.59 -66.11,-173.01 0.48,-6.21 1.49,-36.72 1.9,-40.93 0.95,-5.73 0.47,-13.2 -5.5,-14.44 -2.17,-0.17 -5.84,0.3 -7.33,6.38 -1.15,15.83 -1.63,39.79 -2.44,56.91 -44.8,76.04 -68.69,158.57 -69.91,253.42 -1.77,109.47 25.45,178.99 47.04,222.95 2.77,5.91 5.76,11.83 8.75,17.58 23.62,-28.76 46.01,-83.5 56.13,-117.56 20.64,-68.26 35.57,-139.29 37.47,-211.3"
         style="fill:#100f0d;fill-opacity:1;fill-rule:evenodd;stroke:none"
         id="path26" /><path
         d="m 3645.4,2754.09 c 13.57,-58.63 9.57,-144.93 -34.08,-180.22 1.57,-7.6 5.36,-33.87 5.9,-39.49 1.5,-6.21 2.92,-12.44 -2.1,-14.76 -2.11,-0.78 -3.66,-0.78 -6.18,4.66 -2.78,16.31 -3.73,30.18 -6.51,46.95 -62.51,66.54 -97.94,132.48 -117.49,222.34 -19.95,94.08 -17.17,169.01 -8.49,221.56 0.96,6.37 2.65,12.76 4.41,19.32 54.98,-43.89 93.74,-101.72 126.72,-167.77 17.25,-35.64 31.22,-72.48 37.82,-112.59"
         style="fill:#100f0d;fill-opacity:1;fill-rule:evenodd;stroke:none"
         id="path28" /><path
         d="m 3836.6,1950.22 c 4.95,-4.66 32.98,-31.22 39.76,-27.66 1.91,1.55 3.13,10.41 0.14,12.12 -10.66,8.55 -24.02,14.65 -34.61,22.87 3.39,50.84 -8.14,102.02 -54.3,150.52 -71.06,68.74 -165.13,91.86 -250.66,127.63 -3.8,1.72 -7.74,3.89 -12.08,5.45 0.74,-3.11 1.42,-6.23 2.3,-9.33 16.84,-58.93 50.57,-127.95 91.77,-174.46 26.68,-31.25 62.65,-61.1 100.12,-81.17 39.02,-21.32 76.49,-28.12 117.56,-25.97"
         style="fill:#100f0d;fill-opacity:1;fill-rule:evenodd;stroke:none"
         id="path30" /><path
         d="m 3895.64,1537.76 c 3.94,-6.69 26,-43.07 33.33,-41.2 2.71,0 5.84,8.69 3.53,12.11 -9.44,12.12 -20.97,22.1 -29.18,34.82 14.38,46.53 7.59,113.65 -26.96,177.86 -55.04,93.64 -135.07,139.33 -212.99,204.8 -3.38,3.41 -6.84,6.51 -10.38,9.97 -0.34,-3.15 -0.67,-6.39 -0.34,-10.13 1.84,-64.36 18.47,-144.92 48.67,-205.42 19.42,-41.02 48.19,-82.09 81.18,-115.96 34.55,-34.82 70.72,-54.43 113.14,-66.85"
         style="fill:#100f0d;fill-opacity:1;fill-rule:evenodd;stroke:none"
         id="path32" /><path
         d="m 3856.96,1133.33 c 2.78,-8.08 17.99,-51.15 25.65,-52.88 2.51,0.31 7.46,6.9 5.57,11.23 -6.31,14.29 -13.37,30.76 -19.28,45.69 26.13,24.73 35.16,94.28 14.05,166.7 -35.16,106.35 -113.35,186.37 -176.2,274.55 -2.92,4.2 -5.77,8.41 -8.83,12.48 -0.94,-3.12 -1.28,-6.41 -2.03,-9.5 -10.72,-62.03 -10.25,-144.47 6.65,-211.62 11.4,-44.81 31.22,-94.05 57.02,-136.37 26.68,-44.62 58.17,-75.2 97.4,-100.28"
         style="fill:#100f0d;fill-opacity:1;fill-rule:evenodd;stroke:none"
         id="path34" /><path
         d="m 3951.3,660.039 c -47.57,-31.117 -133.1,-54.699 -191.88,-16.309 -4.48,-3.57 -29.18,-18.031 -31.96,-20.71 -4.08,-4.18 -10.26,-7.098 -13.85,-1.09 -2.04,2.519 -3.26,6.73 0.81,11.379 12.08,8.543 25.79,13.972 38.96,22.39 44.8,92.992 93.05,155.813 166.69,202.102 84.45,54.129 154.83,55.078 200.24,55.078 6.44,0 12.42,-0.309 19,-0.508 -11.4,-91.91 -124.82,-213.133 -188.01,-252.332"
         style="fill:#100f0d;fill-opacity:1;fill-rule:evenodd;stroke:none"
         id="path36" /><path
         d="m 3717.07,731.719 c 0.41,-5.739 3.39,-32.168 7.6,-48.02 1.36,-4.539 1.83,-11.539 8.08,-9.027 2.65,0.609 4.95,5.91 4.81,8.558 -3.05,15.532 -5.49,33.25 -6.65,48.961 29.33,18.539 52.2,79.45 56.68,153.911 -5.09,112.867 -55.66,215.058 -96.25,321.248 -1.22,4.68 -2.78,9.64 -4.62,14.59 -1.55,-2.44 -2.84,-5.27 -4.4,-7.61 -27.02,-55.79 -47.65,-133.88 -49.35,-204.3 -1.56,-46.151 4.89,-99.659 18.46,-149.382 14.12,-50.699 35.29,-90.988 65.64,-128.929"
         style="fill:#100f0d;fill-opacity:1;fill-rule:evenodd;stroke:none"
         id="path38" /><path
         d="m 3692.56,274.488 c -54.7,-10.929 -129.16,-8.277 -175.51,50.5 -11.68,-1.699 -30.62,-4.816 -42.84,-5.597 -3.32,-0.313 -5.97,2.031 -7.4,6.539 -0.88,2.961 0,6.832 5.64,9.64 13.71,3.129 27.69,2.782 42.49,5.43 61.7,72.148 120,112.879 203.82,128.121 97.2,17.551 179.59,-7.16 223.11,-25.492 6.1,-2.168 12.29,-4.82 17.65,-7.777 -15.62,-35.114 -61.36,-71.063 -89.67,-88.34 -54.57,-35.891 -111.04,-62.032 -177.29,-73.024"
         style="fill:#100f0d;fill-opacity:1;fill-rule:evenodd;stroke:none"
         id="path40" /><path
         d="m 3496.55,427.129 c -0.96,-6.508 -1.91,-31.699 -1.91,-48.66 0.35,-4.481 -0.88,-11.059 5.5,-11.199 2.92,0.14 6.18,3.589 6.52,6.718 1.09,15.813 0.47,32.301 3.12,48.5 32.51,10.282 75.55,59.563 95.43,127.5 22.87,109.114 -2.17,221.403 -13.98,336.313 -0.81,4.949 -0.61,10.25 -0.95,15.808 -1.96,-2.16 -4.62,-4.168 -6.52,-6.211 -39.77,-43.367 -79.61,-110.519 -98.41,-176.457 -13.03,-43.07 -20.02,-96.421 -19.76,-147.531 0.62,-53.82 11.2,-98.762 30.96,-144.781"
         style="fill:#100f0d;fill-opacity:1;fill-rule:evenodd;stroke:none"
         id="path42" /><path
         d="m 3188.94,205.121 c -2.71,-4.691 -6.65,-25.652 -10.86,-41.941 -1.15,-3.602 -3.52,-9.508 1.91,-11.848 2.91,-1.121 6.98,1.25 7.8,3.688 5.56,13.718 5.56,27.699 12.08,41.41 31.63,-7.461 86.47,32.582 122.51,85.05 49.82,90.301 55.18,196.489 74.53,303.942 0.6,5.117 2.03,9.629 3.05,14.59 -2.45,-0.582 -5.09,-1.973 -7.74,-2.782 -47.85,-24.242 -102.15,-66.73 -137.17,-118.91 -23.76,-33.91 -46.29,-80.57 -58.91,-127.679 -13.04,-49.141 -13.64,-96.102 -7.2,-145.52"
         style="fill:#100f0d;fill-opacity:1;fill-rule:evenodd;stroke:none"
         id="path44" /><path
         d="m 3361.74,4.51953 c -55.92,7.46877 -128.95,33.28907 -160.72,105.12847 -11.27,3.274 -31.15,5.614 -43.23,9 -3.33,0.614 -5.16,4.071 -5.5,8.723 -0.14,2.508 1.7,6.41 7.53,7.289 14.12,-2.031 27.63,-6.371 43.51,-8.07 81.45,48.332 147.36,70.109 232.88,57.691 98.62,-14.011 169.95,-63.461 208.5,-94.8513 5.57,-4.6484 10.93,-8.6914 16.02,-13.668 C 3636.91,46.5 3583.76,27.0898 3552.34,18.8711 3490.43,1.42969 3429.56,-5.26172 3361.74,4.51953"
         style="fill:#100f0d;fill-opacity:1;fill-rule:evenodd;stroke:none"
         id="path46" /><path
         d="M 1306.67,56.9492 C 836.43,121.941 493.805,491.52 337.629,996.531 c -64.074,208.909 -73.574,440.599 -50.906,683.319 41.402,432.71 240.207,808.67 530.367,1082.77 1.086,1.26 1.762,1.7 2.035,0.49 0.949,-1.25 3.324,-2.68 4.613,-3.44 1.567,-0.92 2.106,-0.15 0.953,-2 C 516.879,2475.91 319.098,2028.14 297.652,1575.36 264.391,929.059 578.441,356.25 1049.08,159.27 c 79.01,-33.29 161.54,-58.821 247.81,-71.8403 5.97,-7.7813 9.64,-18.5313 9.78,-30.4805"
         style="fill:#100f0d;fill-opacity:1;fill-rule:evenodd;stroke:none"
         id="path48" /><path
         d="m 134.07,1136.75 c 38.559,-45.74 99.508,-90.47 165.41,-73.09 3.258,-5.23 20.836,-30.48 23.215,-34.35 2.918,-4.81 8.481,-9.47 12.828,-5.43 2.508,1.87 4.821,5.43 2.106,11.37 -9.504,11.95 -19.145,24.06 -30.07,36.83 -19.278,102.79 -47.579,171.04 -106.762,240.34 -68.281,79.34 -138.5353,114.9 -181.7697,129.7 -6.4492,1.87 -12.14839,3.43 -18.390581,5.3 C -3.64453,1407.78 14.6133,1350.08 28.9336,1316.79 56.7617,1249.63 86.9688,1190.58 134.07,1136.75"
         style="fill:#100f0d;fill-opacity:1;fill-rule:evenodd;stroke:none"
         id="path50" /><path
         d="m 700.141,2582.11 c -5.36,-2.17 -37.399,-10.57 -41.336,-4.02 -1.36,1.85 0.476,8.06 3.261,8.54 11.672,1.26 24.774,2.16 36.11,4.5 20.496,65.02 78.187,93.29 130.855,104.2 63.328,12.72 133.102,-6.7 207.839,-17.12 3.66,-0.78 7.87,-1.09 11.6,-1.26 -1.09,-2.46 -2.92,-4.31 -4.68,-6.65 -31.43,-42.76 -80.095,-81.82 -127.946,-101.23 -31.899,-13.55 -70.453,-21.01 -108.192,-19.76 -39.504,0.96 -73.164,10.1 -107.511,32.8"
         style="fill:#100f0d;fill-opacity:1;fill-rule:evenodd;stroke:none"
         id="path52" /><path
         d="m 823.738,2759.67 c 2.512,-0.92 2.649,-0.15 7.196,2.67 9.027,8.24 16.492,13.37 25.519,21.61 50.836,-0.35 98.895,14.6 144.437,45.05 20.23,13.71 40.38,30.04 57.35,49.64 40.46,43.52 73.1,107.12 88.03,165.42 0.75,3.28 1.36,5.6 1.57,8.86 -3.73,-1.56 -7.2,-3.26 -10.93,-4.99 -82.06,-32.8 -161.203,-48.19 -227.105,-111.91 -44.594,-42.47 -68.012,-94.07 -58.645,-144.16 -10.109,-8.07 -20.84,-15.54 -30.476,-25.03 -4.684,-3.43 0.476,-6.99 3.054,-7.16"
         style="fill:#100f0d;fill-opacity:1;fill-rule:evenodd;stroke:none"
         id="path54" /><path
         d="m 525.707,2309.57 c -5.43,-2.97 -36.519,-18.97 -41.062,-13.68 -1.969,1.99 -1.09,8.86 1.761,9.93 11.469,4.38 25.114,7.16 36.11,12.13 4.277,45.86 29.797,88.91 81.105,118.49 78.059,41.37 166.977,34.51 250.457,41.98 4.207,0.31 7.942,0.6 11.676,0.95 -1.223,-2.32 -2.512,-4.67 -3.527,-7.16 -28.032,-48.07 -72.965,-100 -119.258,-129.69 -30.817,-20.68 -68.891,-36.39 -106.762,-43.86 -39.504,-7.43 -73.918,-3.11 -110.5,10.91"
         style="fill:#100f0d;fill-opacity:1;fill-rule:evenodd;stroke:none"
         id="path56" /><path
         d="m 116.355,1599.45 c 25.458,-56.88 70.864,-119.55 137.45,-123.73 2.101,-5.77 14.254,-33.29 16.015,-37.64 1.356,-5.9 5.567,-12.42 11.133,-9.64 2.442,0.92 5.156,4.21 4.543,10.26 -6.512,15.37 -14.32,27.21 -21.785,42.75 6.109,104.63 0,181.16 -40.043,267.44 -45.41,99.37 -108.258,156.25 -146.6758,184.25 -4.8203,4.17 -10.1133,7.64 -15.6797,11.16 -8.6836,-40.38 -6.1055,-103.37 -0.6094,-139.75 10.043,-74.31 26.0664,-138.58 55.6519,-205.1"
         style="fill:#100f0d;fill-opacity:1;fill-rule:evenodd;stroke:none"
         id="path58" /><path
         d="m 191.293,2020.03 c 11.062,-60.78 38.348,-122.19 99.16,-148.59 0.68,-6.4 7.606,-35.94 8.488,-40.45 0,-6.25 2.106,-13.36 8.211,-12.58 1.832,0.46 6.039,2.01 6.309,8.37 -2.508,15.87 -7.121,34.09 -10.242,51.47 20.222,73.86 31.289,141.31 27.687,213.8 -5.562,101.66 -43.57,189.83 -103.234,261.08 -4.481,5.25 -8.215,10.55 -12.285,15.35 -16.832,-34.96 -27.828,-94.97 -30.949,-130.74 -6.18,-73.1 -5.907,-146.47 6.855,-217.71"
         style="fill:#100f0d;fill-opacity:1;fill-rule:evenodd;stroke:none"
         id="path60" /><path
         d="m 344.617,2403.76 c -1.558,-62.65 13.305,-132.59 66.043,-173.01 -0.406,-6.21 -1.562,-36.72 -1.898,-40.93 -0.887,-5.73 -0.407,-13.2 5.496,-14.44 2.172,-0.17 5.902,0.3 7.328,6.38 1.152,15.83 1.699,39.79 2.512,56.91 44.797,76.04 68.691,158.57 69.843,253.42 1.766,109.47 -25.457,178.99 -47.039,222.95 -2.847,5.91 -5.765,11.83 -8.683,17.58 -23.692,-28.76 -46.024,-83.5 -56.133,-117.56 -20.703,-68.26 -35.637,-139.29 -37.469,-211.3"
         style="fill:#100f0d;fill-opacity:1;fill-rule:evenodd;stroke:none"
         id="path62" /><path
         d="m 576.887,2754.09 c -13.649,-58.63 -9.707,-144.93 34.004,-180.22 -1.567,-7.6 -5.364,-33.87 -5.84,-39.49 -1.559,-6.21 -2.985,-12.44 2.035,-14.76 2.102,-0.78 3.668,-0.78 6.176,4.66 2.785,16.31 3.734,30.18 6.519,46.95 62.578,66.54 97.938,132.48 117.621,222.34 19.821,94.08 17.036,169.01 8.352,221.56 -0.949,6.37 -2.649,12.76 -4.41,19.32 -54.981,-43.89 -93.739,-101.72 -126.727,-167.77 -17.238,-35.64 -31.219,-72.48 -37.73,-112.59"
         style="fill:#100f0d;fill-opacity:1;fill-rule:evenodd;stroke:none"
         id="path64" /><path
         d="m 385.613,1950.22 c -5.023,-4.66 -32.984,-31.22 -39.773,-27.66 -1.899,1.55 -3.121,10.41 -0.137,12.12 10.727,8.55 24.027,14.65 34.684,22.87 -3.457,50.84 8.082,102.02 54.23,150.52 71.067,68.74 165.141,91.86 250.66,127.63 3.868,1.72 7.805,3.89 12.082,5.45 -0.75,-3.11 -1.425,-6.23 -2.375,-9.33 -16.699,-58.93 -50.496,-127.95 -91.699,-174.46 -26.676,-31.25 -62.644,-61.1 -100.117,-81.17 -39.023,-21.32 -76.426,-28.12 -117.555,-25.97"
         style="fill:#100f0d;fill-opacity:1;fill-rule:evenodd;stroke:none"
         id="path66" /><path
         d="m 326.563,1537.76 c -3.868,-6.69 -25.997,-43.07 -33.258,-41.2 -2.852,0 -5.969,8.69 -3.598,12.11 9.438,12.12 20.973,22.1 29.254,34.82 -14.453,46.53 -7.598,113.65 26.879,177.86 55.043,93.64 135.137,139.33 212.988,204.8 3.461,3.41 6.856,6.51 10.387,9.97 0.336,-3.15 0.68,-6.39 0.336,-10.13 -1.832,-64.36 -18.461,-144.92 -48.598,-205.42 -19.476,-41.02 -48.258,-82.09 -81.242,-115.96 -34.481,-34.82 -70.656,-54.43 -113.148,-66.85"
         style="fill:#100f0d;fill-opacity:1;fill-rule:evenodd;stroke:none"
         id="path68" /><path
         d="m 365.254,1133.33 c -2.781,-8.08 -17.988,-51.15 -25.66,-52.88 -2.508,0.31 -7.465,6.9 -5.567,11.23 6.317,14.29 13.375,30.76 19.278,45.69 -26.133,24.73 -35.157,94.28 -13.981,166.7 35.09,106.35 113.281,186.37 176.129,274.55 2.988,4.2 5.774,8.41 8.828,12.48 0.949,-3.12 1.36,-6.41 2.035,-9.5 10.793,-62.03 10.25,-144.47 -6.652,-211.62 -11.336,-44.81 -31.289,-94.05 -57.012,-136.37 -26.605,-44.62 -58.172,-75.2 -97.398,-100.28"
         style="fill:#100f0d;fill-opacity:1;fill-rule:evenodd;stroke:none"
         id="path70" /><path
         d="m 270.977,660.039 c 47.507,-31.117 133.031,-54.699 191.812,-16.309 4.547,-3.57 29.184,-18.031 31.969,-20.71 4.07,-4.18 10.316,-7.098 13.847,-1.09 2.102,2.519 3.254,6.73 -0.75,11.379 -12.148,8.543 -25.859,13.972 -38.96,22.39 -44.797,92.992 -93.055,155.813 -166.766,202.102 -84.434,54.129 -154.82,55.078 -200.231,55.078 -6.4449,0 -12.4839,-0.309 -18.9332,-0.508 11.336,-91.91 124.7502,-213.133 188.0122,-252.332"
         style="fill:#100f0d;fill-opacity:1;fill-rule:evenodd;stroke:none"
         id="path72" /><path
         d="m 505.211,731.719 c -0.481,-5.739 -3.465,-32.168 -7.672,-48.02 -1.355,-4.539 -1.832,-11.539 -8.012,-9.027 -2.714,0.609 -5.019,5.91 -4.882,8.558 3.121,15.532 5.496,33.25 6.648,48.961 -29.32,18.539 -52.129,79.45 -56.676,153.911 5.094,112.867 55.66,215.058 96.246,321.248 1.223,4.68 2.785,9.64 4.684,14.59 1.562,-2.44 2.715,-5.27 4.348,-7.61 27.078,-55.79 47.71,-133.88 49.406,-204.3 1.562,-46.151 -4.949,-99.659 -18.524,-149.382 -14.121,-50.699 -35.23,-90.988 -65.566,-128.929"
         style="fill:#100f0d;fill-opacity:1;fill-rule:evenodd;stroke:none"
         id="path74" /><path
         d="m 529.645,274.488 c 54.707,-10.929 129.16,-8.277 175.523,50.5 11.672,-1.699 30.676,-4.816 42.895,-5.597 3.324,-0.313 5.968,2.031 7.328,6.539 0.882,2.961 0,6.832 -5.567,9.64 -13.777,3.129 -27.758,2.782 -42.484,5.43 -61.699,72.148 -120.004,112.879 -203.828,128.121 -97.199,17.551 -179.594,-7.16 -223.168,-25.492 -6.043,-2.168 -12.285,-4.82 -17.715,-7.777 15.746,-35.114 61.426,-71.063 89.793,-88.34 54.508,-35.891 110.906,-62.032 177.223,-73.024"
         style="fill:#100f0d;fill-opacity:1;fill-rule:evenodd;stroke:none"
         id="path76" /><path
         d="m 725.664,427.129 c 0.945,-6.508 1.899,-31.699 1.899,-48.66 -0.34,-4.481 0.878,-11.059 -5.497,-11.199 -2.921,0.14 -6.175,3.589 -6.515,6.718 -1.086,15.813 -0.41,32.301 -3.125,48.5 -32.508,10.282 -75.473,59.563 -95.43,127.5 -22.808,109.114 2.106,221.403 13.981,336.313 0.816,4.949 0.609,10.25 0.953,15.808 2.035,-2.16 4.613,-4.168 6.582,-6.211 39.773,-43.367 79.551,-110.519 98.418,-176.457 13.031,-43.07 20.023,-96.421 19.679,-147.531 C 756,518.09 745.414,473.148 725.664,427.129"
         style="fill:#100f0d;fill-opacity:1;fill-rule:evenodd;stroke:none"
         id="path78" /><path
         d="m 1033.27,205.121 c 2.78,-4.691 6.65,-25.652 10.86,-41.941 1.22,-3.602 3.59,-9.508 -1.9,-11.848 -2.92,-1.121 -6.93,1.25 -7.74,3.688 -5.64,13.718 -5.64,27.699 -12.15,41.41 -31.563,-7.461 -86.473,32.582 -122.512,85.05 -49.824,90.301 -55.183,196.489 -74.523,303.942 -0.614,5.117 -2.039,9.629 -3.059,14.59 2.445,-0.582 5.094,-1.973 7.738,-2.782 47.852,-24.242 102.149,-66.73 137.106,-118.91 23.89,-33.91 46.36,-80.57 58.98,-127.679 13.04,-49.141 13.64,-96.102 7.2,-145.52"
         style="fill:#100f0d;fill-opacity:1;fill-rule:evenodd;stroke:none"
         id="path80" /><path
         d="m 860.461,4.51953 c 55.992,7.46877 128.957,33.28907 160.789,105.12847 11.2,3.274 31.09,5.614 43.17,9 3.33,0.614 5.16,4.071 5.5,8.723 0.13,2.508 -1.77,6.41 -7.47,7.289 -14.12,-2.031 -27.69,-6.371 -43.5,-8.07 C 937.426,174.922 871.523,196.699 786,184.281 687.449,170.27 616.047,120.82 577.496,89.4297 571.859,84.7813 566.566,80.7383 561.477,75.7617 585.297,46.5 638.512,27.0898 669.867,18.8711 731.773,1.42969 792.719,-5.26172 860.461,4.51953"
         style="fill:#100f0d;fill-opacity:1;fill-rule:evenodd;stroke:none"
         id="path82" /><path
         d="m 1876.91,2405.86 h -103.56 v -134.14 h 69.51 v -77.15 h -69.51 v -222.41 h -75.06 v 510.86 c 0,0 7.65,0 178.62,0 v -77.16"
         style="fill:#100f0d;fill-opacity:1;fill-rule:nonzero;stroke:none"
         id="path84" /><path
         d="m 1907.49,2483.02 h 75.06 v -510.86 h -75.06 v 510.86"
         style="fill:#100f0d;fill-opacity:1;fill-rule:nonzero;stroke:none"
         id="path86" /><path
         d="m 2038.15,2483.02 h 75.06 v -441.35 h 99.39 v -69.51 h -174.45 v 510.86"
         style="fill:#100f0d;fill-opacity:1;fill-rule:nonzero;stroke:none"
         id="path88" /><path
         d="m 2367.59,1972.16 -47.96,321.11 -2.78,21.55 h -4.17 v -21.55 -321.11 h -69.5 v 510.86 h 91.75 l 44.48,-233.54 3.47,-27.1 h 1.39 l 3.48,27.1 44.48,233.54 h 91.74 v -510.86 h -69.5 v 321.11 21.55 h -4.17 l -2.79,-21.55 -47.94,-321.11 h -31.98"
         style="fill:#100f0d;fill-opacity:1;fill-rule:nonzero;stroke:none"
         id="path90" /><path
         d="m 1457.83,1745.59 h -103.56 v -134.14 h 69.5 v -77.15 h -69.5 v -222.41 h -75.07 v 510.85 c 0,0 7.65,0 178.63,0 v -77.15"
         style="fill:#100f0d;fill-opacity:1;fill-rule:nonzero;stroke:none"
         id="path92" /><path
         d="m 1488.4,1822.74 h 171.68 v -77.15 h -96.61 v -134.14 h 69.5 v -82.01 h -69.5 v -140.4 h 96.61 v -77.15 H 1488.4 v 510.85"
         style="fill:#100f0d;fill-opacity:1;fill-rule:nonzero;stroke:none"
         id="path94" /><path
         d="m 1794.91,1828.3 c 90.35,2.09 104.95,-78.53 104.95,-135.53 l -73.68,-6.95 c 0,34.06 -4.86,73.67 -29.89,73.67 -19.45,-0.69 -25.71,-21.54 -25.71,-50.74 0,-34.75 29.89,-73.67 59.08,-116.06 34.75,-52.13 70.2,-102.87 70.2,-157.78 0,-68.11 -22.24,-128.58 -104.26,-128.58 -96.61,0 -109.12,72.98 -109.12,148.73 l 73.68,6.96 c 0,-42.4 4.17,-86.88 35.44,-86.88 22.24,0 30.58,24.33 30.58,56.3 0,34.05 -31.97,75.06 -60.47,118.15 -35.44,52.13 -68.81,104.26 -68.81,159.16 0,55.61 27.11,118.16 98.01,119.55"
         style="fill:#100f0d;fill-opacity:1;fill-rule:nonzero;stroke:none"
         id="path96" /><path
         d="m 1913.75,1745.59 v 77.15 h 216.84 v -77.15 h -70.89 v -433.7 h -75.06 v 433.7 h -70.89"
         style="fill:#100f0d;fill-opacity:1;fill-rule:nonzero;stroke:none"
         id="path98" /><path
         d="m 2159.78,1822.74 h 75.06 v -510.85 h -75.06 v 510.85"
         style="fill:#100f0d;fill-opacity:1;fill-rule:nonzero;stroke:none"
         id="path100" /><path
         d="m 2426.67,1822.74 h 72.98 l -77.85,-510.85 h -75.06 l -77.84,510.85 h 72.98 l 37.53,-280.79 2.78,-21.54 h 4.17 l 2.78,21.54 37.53,280.79"
         style="fill:#100f0d;fill-opacity:1;fill-rule:nonzero;stroke:none"
         id="path102" /><path
         d="m 2640.03,1656.63 -2.08,13.2 h -4.17 l -2.09,-13.2 -21.54,-161.25 h 51.43 z m -127.18,-344.74 77.15,510.85 h 91.73 l 77.16,-510.85 h -72.98 l -13.9,104.26 h -72.29 l -13.89,-104.26 h -72.98"
         style="fill:#100f0d;fill-opacity:1;fill-rule:nonzero;stroke:none"
         id="path104" /><path
         d="m 2793.63,1822.74 h 75.06 v -441.35 h 99.39 v -69.5 h -174.45 v 510.85"
         style="fill:#100f0d;fill-opacity:1;fill-rule:nonzero;stroke:none"
         id="path106" /><path
         d="m 1325.42,1162.46 h 75.06 V 721.109 h 99.39 v -69.5 h -174.45 v 510.851"
         style="fill:#100f0d;fill-opacity:1;fill-rule:nonzero;stroke:none"
         id="path108" /><path
         d="m 1636.79,996.34 -2.09,13.22 h -4.17 l -2.08,-13.22 -21.55,-161.25 h 51.43 z m -127.2,-344.731 77.16,510.851 h 91.74 l 77.15,-510.851 h -72.98 l -13.9,104.25 h -72.29 l -13.89,-104.25 h -72.99"
         style="fill:#100f0d;fill-opacity:1;fill-rule:nonzero;stroke:none"
         id="path110" /><path
         d="M 1989.85,1162.46 V 756.559 c 0,0 0.7,-110.508 -100.08,-110.508 -100.78,0 -100.09,110.508 -100.09,110.508 v 405.901 h 75.07 V 756.559 c 0,0 -1.39,-37.528 25.02,-37.528 26.41,0 25.02,37.528 25.02,37.528 v 405.901 h 75.06"
         style="fill:#100f0d;fill-opacity:1;fill-rule:nonzero;stroke:none"
         id="path112" /><path
         d="M 2119.82,1088.09 V 936.57 c 20.86,0 55.6,2.782 55.6,75.76 0,72.98 -34.74,75.76 -55.6,75.76 z m 59.08,-436.481 -38.92,215.461 h -20.16 V 651.609 h -75.06 v 510.851 h 75.06 c 88.96,0 127.89,-51.43 127.89,-147.35 0,-50.739 -13.2,-96.61 -41.7,-116.071 l 47.96,-247.43 h -75.07"
         style="fill:#100f0d;fill-opacity:1;fill-rule:nonzero;stroke:none"
         id="path114" /><path
         d="m 2295.66,1162.46 h 171.67 v -77.15 h -96.61 V 951.172 h 69.51 V 869.16 h -69.51 V 728.75 h 96.61 v -77.141 h -171.67 v 510.851"
         style="fill:#100f0d;fill-opacity:1;fill-rule:nonzero;stroke:none"
         id="path116" /><path
         d="m 2509.03,1162.46 h 75.06 V 721.109 h 99.39 v -69.5 h -174.45 v 510.851"
         style="fill:#100f0d;fill-opacity:1;fill-rule:nonzero;stroke:none"
         id="path118" /><path
         d="m 2807.19,1168.02 c 90.35,2.08 104.95,-78.54 104.95,-135.53 l -73.67,-6.96 c 0,34.06 -4.87,73.68 -29.89,73.68 -19.46,-0.69 -25.71,-21.55 -25.71,-50.74 0,-34.74 29.88,-73.669 59.08,-116.072 34.74,-52.117 70.19,-102.859 70.19,-157.777 0,-68.101 -22.24,-128.57 -104.25,-128.57 -96.62,0 -109.13,72.98 -109.13,148.73 l 73.68,6.949 c 0,-42.39 4.17,-86.871 35.45,-86.871 22.24,0 30.58,24.321 30.58,56.301 0,34.051 -31.97,75.059 -60.47,118.149 -35.45,52.132 -68.81,104.261 -68.81,159.161 0,55.61 27.1,118.16 98,119.55"
         style="fill:#100f0d;fill-opacity:1;fill-rule:nonzero;stroke:none"
         id="path120" /></g></g></svg>
