<?xml version="1.0" encoding="UTF-8"?>
<!-- Created with Inkscape (http://www.inkscape.org/) -->
<svg width="1e3mm" height="500mm" version="1.1" viewBox="0 0 1e3 500" xmlns="http://www.w3.org/2000/svg">
 <defs>
  <clipPath id="clipPath21">
   <rect x="-293.21" y="-128.13" width="1e3" height="250" ry="3.6638" stroke-width=".26458"/>
  </clipPath>
  <clipPath id="clipPath22">
   <rect x="-293.21" y="121.87" width="1e3" height="250" ry="3.6638" fill="#dfdfdf" stroke-width=".26458"/>
  </clipPath>
  <clipPath id="clipPath43">
   <rect x="-293.21" y="-189.99" width="1e3" height="250" ry="3.6638" stroke-width=".26458"/>
  </clipPath>
  <clipPath id="clipPath44">
   <rect x="-293.21" y="60.013" width="1e3" height="250" ry="3.6638" fill="#dfdfdf" stroke-width=".26458"/>
  </clipPath>
 </defs>
 <g>
  <rect id="Black_bgd" width="1e3" height="250" ry="3.6638" stroke-width=".26458"/>
  <rect y="250" width="1e3" height="250" ry="3.6638" stroke-width=".26458"/>
  <g transform="translate(293.21 128.13)" fill="#f9f9f9" stroke-width=".26458">
   <path d="m51.428 101.83h8.497v24.573q0 2.8132 0.68895 4.7078 0.74636 1.8372 2.3539 2.8132 1.6075 0.9186 4.1911 0.9186t4.1337-0.9186q1.6075-0.97601 2.3539-2.8132 0.74636-1.8946 0.74636-4.7078v-24.573h8.497v23.654q0 5.9135-1.5501 9.7027-1.5501 3.7892-4.9949 5.6264-3.4447 1.7798-9.186 1.7798-5.7412 0-9.186-1.7798-3.4447-1.8372-4.9949-5.6264-1.5501-3.7892-1.5501-9.7027z" aria-label="U"/>
   <path d="m113.86 141.91-10.966-18.946-3.8466-8.0377h-0.17224v26.984h-8.21v-40.074h9.5305l10.966 18.946 3.8466 8.0377h0.17224v-26.984h8.21v40.074z" aria-label="N"/>
   <path d="m131.48 141.91v-40.074h9.2434l5.3394 10.219 4.4782 8.5544h0.11482l4.4208-8.5544 5.2819-10.219h9.3008v40.074h-8.21v-26.295h-0.17223l-2.928 5.8561-7.8081 14.181-7.6358-14.123-3.0429-6.3154h-0.17224v26.697z" aria-label="M"/>
   <path d="m211.2 141.91h-9.0712l-2.8706-9.5305h-13.377l-2.8706 9.5305h-8.8415l13.205-40.074h10.794zm-14.066-16.937-2.4687-8.3248-2.0094-6.8895h-0.28706l-1.952 6.8895-2.4687 8.3248z" aria-label="A"/>
   <path d="m228.16 142.6q-5.2245 0-8.9563-1.8372-3.6744-1.8372-6.258-4.6504l5.7412-5.7986q2.0094 2.2965 4.5356 3.4448 2.5836 1.1482 5.5116 1.1482 3.2151 0 4.7652-1.3205 1.5501-1.3205 1.5501-3.5022 0-1.0908-0.40189-1.952-0.34447-0.9186-1.3779-1.4927-0.97601-0.63154-2.8706-0.86119l-3.9614-0.51671q-4.1911-0.57412-6.9469-2.0668-2.6984-1.5501-4.0189-4.0189-1.3205-2.5262-1.3205-5.8561 0-3.617 1.7798-6.3154 1.8372-2.7558 5.1671-4.3059 3.3873-1.5501 8.0951-1.5501 4.5356 0 7.9803 1.4927 3.4447 1.4353 5.9135 4.1337l-5.7987 5.8561q-1.4353-1.665-3.5022-2.6984-2.0094-1.0908-5.1097-1.0908-2.928 0-4.3633 1.0334-1.4353 1.0334-1.4353 2.8706 0 1.3779 0.4593 2.2391 0.51671 0.86119 1.5501 1.3205 1.0908 0.45929 2.7558 0.74636l3.9615 0.63153q4.1337 0.63154 6.8321 2.1243t4.0189 3.904q1.3205 2.4113 1.3205 5.8561 0 3.8466-1.8372 6.7747-1.7798 2.928-5.2819 4.593-3.5022 1.665-8.497 1.665z" aria-label="S"/>
   <path d="m273.5 141.91-10.621-17.453-5.2245 6.3154v11.138h-8.7267v-40.074h8.7267v19.061h0.34448l5.6838-7.7507 9.0138-11.31h9.8749l-13.492 16.477 14.698 23.596z" aria-label="K"/>
   <path transform="translate(-4.7625)" d="m294.21 101.83v40.074h5.4544v-40.074zm5.4544 0v40.074h21.817v-7.7504h-18.544v-8.6692h15.903v-7.6936h-15.903v-8.2098h18.544v-7.7504zm21.817 0v7.7504h5.4539v-7.7504zm-2.6412 15.96v7.6936h5.4544v-7.6936zm2.6412 16.363v7.7504h5.4539v-7.7504z"/>
   <path d="m329.42 141.91v-40.074h15.099q5.3394 0 9.3008 2.2391 3.9615 2.2391 6.1431 6.7173 2.1817 4.4208 2.1817 11.081t-2.1817 11.138q-2.1817 4.4208-6.1431 6.6598-3.9614 2.2391-9.3008 2.2391zm8.7267-7.7507h6.3728q2.5836 0 4.4782-0.97601t2.8706-2.9854q1.0334-2.0668 1.0334-5.2245v-6.2005q0-3.2151-1.0334-5.2245-0.97601-2.0094-2.8706-2.9854-1.8946-0.97602-4.4782-0.97602h-6.3728z" aria-label="D"/>
  </g>
  <g transform="translate(293.21 128.13)" clip-path="url(#clipPath22)" display="none" stroke-width=".26458">
   <path d="m51.428 101.83h8.497v24.573q0 2.8132 0.68895 4.7078 0.74636 1.8372 2.3539 2.8132 1.6075 0.9186 4.1911 0.9186t4.1337-0.9186q1.6075-0.97601 2.3539-2.8132 0.74636-1.8946 0.74636-4.7078v-24.573h8.497v23.654q0 5.9135-1.5501 9.7027-1.5501 3.7892-4.9949 5.6264-3.4447 1.7798-9.186 1.7798-5.7412 0-9.186-1.7798-3.4447-1.8372-4.9949-5.6264-1.5501-3.7892-1.5501-9.7027z" aria-label="U"/>
   <path d="m113.86 141.91-10.966-18.946-3.8466-8.0377h-0.17224v26.984h-8.21v-40.074h9.5305l10.966 18.946 3.8466 8.0377h0.17224v-26.984h8.21v40.074z" aria-label="N"/>
   <path d="m131.48 141.91v-40.074h9.2434l5.3394 10.219 4.4782 8.5544h0.11482l4.4208-8.5544 5.2819-10.219h9.3008v40.074h-8.21v-26.295h-0.17223l-2.928 5.8561-7.8081 14.181-7.6358-14.123-3.0429-6.3154h-0.17224v26.697z" aria-label="M"/>
   <path d="m211.2 141.91h-9.0712l-2.8706-9.5305h-13.377l-2.8706 9.5305h-8.8415l13.205-40.074h10.794zm-14.066-16.937-2.4687-8.3248-2.0094-6.8895h-0.28706l-1.952 6.8895-2.4687 8.3248z" aria-label="A"/>
   <path d="m228.16 142.6q-5.2245 0-8.9563-1.8372-3.6744-1.8372-6.258-4.6504l5.7412-5.7986q2.0094 2.2965 4.5356 3.4448 2.5836 1.1482 5.5116 1.1482 3.2151 0 4.7652-1.3205 1.5501-1.3205 1.5501-3.5022 0-1.0908-0.40189-1.952-0.34447-0.9186-1.3779-1.4927-0.97601-0.63154-2.8706-0.86119l-3.9614-0.51671q-4.1911-0.57412-6.9469-2.0668-2.6984-1.5501-4.0189-4.0189-1.3205-2.5262-1.3205-5.8561 0-3.617 1.7798-6.3154 1.8372-2.7558 5.1671-4.3059 3.3873-1.5501 8.0951-1.5501 4.5356 0 7.9803 1.4927 3.4447 1.4353 5.9135 4.1337l-5.7987 5.8561q-1.4353-1.665-3.5022-2.6984-2.0094-1.0908-5.1097-1.0908-2.928 0-4.3633 1.0334-1.4353 1.0334-1.4353 2.8706 0 1.3779 0.4593 2.2391 0.51671 0.86119 1.5501 1.3205 1.0908 0.45929 2.7558 0.74636l3.9615 0.63153q4.1337 0.63154 6.8321 2.1243t4.0189 3.904q1.3205 2.4113 1.3205 5.8561 0 3.8466-1.8372 6.7747-1.7798 2.928-5.2819 4.593-3.5022 1.665-8.497 1.665z" aria-label="S"/>
   <path d="m273.5 141.91-10.621-17.453-5.2245 6.3154v11.138h-8.7267v-40.074h8.7267v19.061h0.34448l5.6838-7.7507 9.0138-11.31h9.8749l-13.492 16.477 14.698 23.596z" aria-label="K"/>
   <path transform="translate(-4.7625)" d="m294.21 101.83v40.074h5.4544v-40.074zm5.4544 0v40.074h21.817v-7.7504h-18.544v-8.6692h15.903v-7.6936h-15.903v-8.2098h18.544v-7.7504zm19.176 15.96v7.6936h5.4544v-7.6936zm2.6412 16.363v7.7504h5.4539v-7.7504z" display="inline"/>
   <path d="m329.42 141.91v-40.074h15.099q5.3394 0 9.3008 2.2391 3.9615 2.2391 6.1431 6.7173 2.1817 4.4208 2.1817 11.081t-2.1817 11.138q-2.1817 4.4208-6.1431 6.6598-3.9614 2.2391-9.3008 2.2391zm8.7267-7.7507h6.3728q2.5836 0 4.4782-0.97601t2.8706-2.9854q1.0334-2.0668 1.0334-5.2245v-6.2005q0-3.2151-1.0334-5.2245-0.97601-2.0094-2.8706-2.9854-1.8946-0.97602-4.4782-0.97602h-6.3728z" aria-label="D"/>
  </g>
  <g transform="translate(293.21 189.99)" display="none" fill="#500" stroke-width=".26458">
   <path d="m51.428 80.086v-40.074h15.099q5.3394 0 9.3008 2.2391 3.9615 2.2391 6.1431 6.7173 2.1817 4.4208 2.1817 11.081t-2.1817 11.138q-2.1817 4.4208-6.1431 6.6598-3.9615 2.2391-9.3008 2.2391zm8.7267-7.7507h6.3728q2.5836 0 4.4782-0.97601 1.8946-0.97601 2.8706-2.9854 1.0334-2.0668 1.0334-5.2245v-6.2005q0-3.2151-1.0334-5.2245-0.97601-2.0094-2.8706-2.9854t-4.4782-0.97601h-6.3728z" aria-label="D"/>
   <path d="m96.121 40.013v40.074h21.817v-7.7504h-18.544v-8.6692h15.903v-7.6936h-15.903v-8.2098h18.544v-7.7504zm21.817 0v7.7504h5.4539v-7.7504zm-2.6412 15.96v7.6936h5.4544v-7.6936zm2.6412 16.363v7.7504h5.4539v-7.7504zm-12.057-48.341-5.6839 11.138 5.0524 2.4691 7.6931-10.105zm-15.214 16.018v40.074h5.4539v-40.074z" display="inline"/>
   <g>
    <path d="m131.48 80.086v-40.074h9.2434l5.3394 10.219 4.4782 8.5544h0.11482l4.4208-8.5544 5.2819-10.219h9.3008v40.074h-8.21v-26.295h-0.17223l-2.928 5.8561-7.8081 14.181-7.6358-14.123-3.0429-6.3154h-0.17224v26.697z" aria-label="M"/>
    <path d="m211.2 80.086h-9.0712l-2.8706-9.5305h-13.377l-2.8706 9.5305h-8.8415l13.205-40.074h10.794zm-14.066-16.937-2.4687-8.3248-2.0094-6.8895h-0.28706l-1.952 6.8895-2.4687 8.3248z" aria-label="A"/>
    <path d="m228.16 80.775q-5.2245 0-8.9563-1.8372-3.6744-1.8372-6.258-4.6504l5.7412-5.7987q2.0094 2.2965 4.5356 3.4447 2.5836 1.1482 5.5116 1.1482 3.2151 0 4.7652-1.3205 1.5501-1.3205 1.5501-3.5022 0-1.0908-0.40189-1.952-0.34447-0.9186-1.3779-1.4927-0.97601-0.63154-2.8706-0.86119l-3.9614-0.51671q-4.1911-0.57412-6.9469-2.0668-2.6984-1.5501-4.0189-4.0189-1.3205-2.5261-1.3205-5.8561 0-3.617 1.7798-6.3154 1.8372-2.7558 5.1671-4.3059 3.3873-1.5501 8.0951-1.5501 4.5356 0 7.9803 1.4927 3.4447 1.4353 5.9135 4.1337l-5.7987 5.8561q-1.4353-1.665-3.5022-2.6984-2.0094-1.0908-5.1097-1.0908-2.928 0-4.3633 1.0334-1.4353 1.0334-1.4353 2.8706 0 1.3779 0.4593 2.2391 0.51671 0.86119 1.5501 1.3205 1.0908 0.4593 2.7558 0.74636l3.9615 0.63154q4.1337 0.63154 6.8321 2.1243 2.6984 1.4927 4.0189 3.904 1.3205 2.4113 1.3205 5.8561 0 3.8466-1.8372 6.7747-1.7798 2.928-5.2819 4.593-3.5022 1.665-8.497 1.665z" aria-label="S"/>
    <path d="m277.18 83.531v7.1191h-5.3968q-4.6504 0-6.7747-2.1817-2.1242-2.1817-2.1242-6.3154v-1.665q-4.2485-0.80377-7.4062-3.3299-3.1577-2.5836-4.8801-6.8321-1.665-4.3059-1.665-10.277 0-6.8321 2.1817-11.425 2.1817-4.593 6.1431-6.9469 4.0189-2.3539 9.3008-2.3539 5.3394 0 9.3008 2.3539 3.9614 2.3539 6.1431 6.9469 2.1817 4.593 2.1817 11.425 0 5.7987-1.6076 10.047-1.6076 4.1911-4.5356 6.7747t-7.0043 3.4447v3.2151zm-10.621-10.506q2.641 0 4.4782-1.1482 1.8946-1.2057 2.8706-3.4447 1.0334-2.2391 1.0334-5.3968v-5.9709q0-3.2151-1.0334-5.3968-0.97601-2.2391-2.8706-3.3873-1.8372-1.2057-4.4782-1.2057-2.5836 0-4.4782 1.2057-1.8946 1.1482-2.928 3.3873-0.97601 2.1817-0.97601 5.3968v5.9709q0 3.1577 0.97601 5.3968 1.0334 2.2391 2.928 3.4447 1.8946 1.1482 4.4782 1.1482z" aria-label="Q"/>
    <path transform="translate(-1.25e-6)" d="m289.44 40.013h8.497v24.573q0 2.8132 0.68895 4.7078 0.74636 1.8372 2.3539 2.8132 1.6076 0.9186 4.1911 0.9186t4.1337-0.9186q1.6076-0.97601 2.3539-2.8132 0.74636-1.8946 0.74636-4.7078v-24.573h8.497v23.654q0 5.9135-1.5501 9.7027-1.5501 3.7892-4.9949 5.6264-3.4447 1.7798-9.186 1.7798t-9.186-1.7798q-3.4448-1.8372-4.9949-5.6264-1.5501-3.7892-1.5501-9.7027z" display="inline" aria-label="U"/>
   </g>
   <path d="m334.88 40.013v40.074h21.817v-7.7504h-18.544v-8.6692h15.903v-7.6936h-15.903v-8.2098h18.544v-7.7504zm21.817 0v7.7504h5.4539v-7.7504zm-2.6412 15.96v7.6936h5.4544v-7.6936zm2.6412 16.363v7.7504h5.4539v-7.7504zm-12.057-48.341-5.6839 11.138 5.0524 2.4691 7.6931-10.105zm-15.215 16.018v40.074h5.4544v-40.074z" display="inline"/>
  </g>
 </g>
 <g display="none">
  <rect id="White_bgd" y="250" width="1e3" height="250" ry="3.6638" display="inline" fill="#fff" stroke-width=".26458"/>
  <g transform="translate(293.21 189.99)" clip-path="url(#clipPath44)" display="inline" stroke-width=".26458">
   <path d="m51.428 80.086v-40.074h15.099q5.3394 0 9.3008 2.2391 3.9615 2.2391 6.1431 6.7173 2.1817 4.4208 2.1817 11.081t-2.1817 11.138q-2.1817 4.4208-6.1431 6.6598-3.9615 2.2391-9.3008 2.2391zm8.7267-7.7507h6.3728q2.5836 0 4.4782-0.97601 1.8946-0.97601 2.8706-2.9854 1.0334-2.0668 1.0334-5.2245v-6.2005q0-3.2151-1.0334-5.2245-0.97601-2.0094-2.8706-2.9854t-4.4782-0.97601h-6.3728z" display="inline" aria-label="D"/>
   <path d="m96.121 40.013v40.074h21.817v-7.7504h-18.544v-8.6692h15.903v-7.6936h-15.903v-8.2098h18.544v-7.7504zm21.817 0v7.7504h5.4539v-7.7504zm-2.6412 15.96v7.6936h5.4544v-7.6936zm2.6412 16.363v7.7504h5.4539v-7.7504zm-12.057-48.341-5.6839 11.138 5.0524 2.4691 7.6931-10.105zm-15.214 16.018v40.074h5.4539v-40.074z" display="inline"/>
   <g>
    <path d="m131.48 80.086v-40.074h9.2434l5.3394 10.219 4.4782 8.5544h0.11482l4.4208-8.5544 5.2819-10.219h9.3008v40.074h-8.21v-26.295h-0.17223l-2.928 5.8561-7.8081 14.181-7.6358-14.123-3.0429-6.3154h-0.17224v26.697z" aria-label="M"/>
    <path d="m211.2 80.086h-9.0712l-2.8706-9.5305h-13.377l-2.8706 9.5305h-8.8415l13.205-40.074h10.794zm-14.066-16.937-2.4687-8.3248-2.0094-6.8895h-0.28706l-1.952 6.8895-2.4687 8.3248z" aria-label="A"/>
    <path d="m228.16 80.775q-5.2245 0-8.9563-1.8372-3.6744-1.8372-6.258-4.6504l5.7412-5.7987q2.0094 2.2965 4.5356 3.4447 2.5836 1.1482 5.5116 1.1482 3.2151 0 4.7652-1.3205 1.5501-1.3205 1.5501-3.5022 0-1.0908-0.40189-1.952-0.34447-0.9186-1.3779-1.4927-0.97601-0.63154-2.8706-0.86119l-3.9614-0.51671q-4.1911-0.57412-6.9469-2.0668-2.6984-1.5501-4.0189-4.0189-1.3205-2.5261-1.3205-5.8561 0-3.617 1.7798-6.3154 1.8372-2.7558 5.1671-4.3059 3.3873-1.5501 8.0951-1.5501 4.5356 0 7.9803 1.4927 3.4447 1.4353 5.9135 4.1337l-5.7987 5.8561q-1.4353-1.665-3.5022-2.6984-2.0094-1.0908-5.1097-1.0908-2.928 0-4.3633 1.0334-1.4353 1.0334-1.4353 2.8706 0 1.3779 0.4593 2.2391 0.51671 0.86119 1.5501 1.3205 1.0908 0.4593 2.7558 0.74636l3.9615 0.63154q4.1337 0.63154 6.8321 2.1243 2.6984 1.4927 4.0189 3.904 1.3205 2.4113 1.3205 5.8561 0 3.8466-1.8372 6.7747-1.7798 2.928-5.2819 4.593-3.5022 1.665-8.497 1.665z" aria-label="S"/>
    <path d="m277.18 83.531v7.1191h-5.3968q-4.6504 0-6.7747-2.1817-2.1242-2.1817-2.1242-6.3154v-1.665q-4.2485-0.80377-7.4062-3.3299-3.1577-2.5836-4.8801-6.8321-1.665-4.3059-1.665-10.277 0-6.8321 2.1817-11.425 2.1817-4.593 6.1431-6.9469 4.0189-2.3539 9.3008-2.3539 5.3394 0 9.3008 2.3539 3.9614 2.3539 6.1431 6.9469 2.1817 4.593 2.1817 11.425 0 5.7987-1.6076 10.047-1.6076 4.1911-4.5356 6.7747t-7.0043 3.4447v3.2151zm-10.621-10.506q2.641 0 4.4782-1.1482 1.8946-1.2057 2.8706-3.4447 1.0334-2.2391 1.0334-5.3968v-5.9709q0-3.2151-1.0334-5.3968-0.97601-2.2391-2.8706-3.3873-1.8372-1.2057-4.4782-1.2057-2.5836 0-4.4782 1.2057-1.8946 1.1482-2.928 3.3873-0.97601 2.1817-0.97601 5.3968v5.9709q0 3.1577 0.97601 5.3968 1.0334 2.2391 2.928 3.4447 1.8946 1.1482 4.4782 1.1482z" aria-label="Q"/>
    <path transform="translate(-1.25e-6)" d="m289.44 40.013h8.497v24.573q0 2.8132 0.68895 4.7078 0.74636 1.8372 2.3539 2.8132 1.6076 0.9186 4.1911 0.9186t4.1337-0.9186q1.6076-0.97601 2.3539-2.8132 0.74636-1.8946 0.74636-4.7078v-24.573h8.497v23.654q0 5.9135-1.5501 9.7027-1.5501 3.7892-4.9949 5.6264-3.4447 1.7798-9.186 1.7798t-9.186-1.7798q-3.4448-1.8372-4.9949-5.6264-1.5501-3.7892-1.5501-9.7027z" display="inline" aria-label="U"/>
    <path transform="translate(-1.25e-6)" d="m334.88 40.013v40.074h21.817v-7.7504h-18.544v-8.6692h15.903v-7.6936h-15.903v-8.2098h18.544v-7.7504zm21.817 0v7.7504h5.4539v-7.7504zm-2.6412 15.96v7.6936h5.4544v-7.6936zm2.6412 16.363v7.7504h5.4539v-7.7504zm-12.057-48.341-5.6839 11.138 5.0524 2.4691 7.6931-10.105zm-15.215 16.018v40.074h5.4544v-40.074z" display="inline"/>
   </g>
  </g>
  <g transform="translate(293.21 128.13)" clip-path="url(#clipPath21)" display="none" fill="#fff" stroke-width=".26458">
   <path d="m51.428 101.83h8.497v24.573q0 2.8132 0.68895 4.7078 0.74636 1.8372 2.3539 2.8132 1.6075 0.9186 4.1911 0.9186t4.1337-0.9186q1.6075-0.97601 2.3539-2.8132 0.74636-1.8946 0.74636-4.7078v-24.573h8.497v23.654q0 5.9135-1.5501 9.7027-1.5501 3.7892-4.9949 5.6264-3.4447 1.7798-9.186 1.7798-5.7412 0-9.186-1.7798-3.4447-1.8372-4.9949-5.6264-1.5501-3.7892-1.5501-9.7027z" aria-label="U"/>
   <path d="m113.86 141.91-10.966-18.946-3.8466-8.0377h-0.17224v26.984h-8.21v-40.074h9.5305l10.966 18.946 3.8466 8.0377h0.17224v-26.984h8.21v40.074z" aria-label="N"/>
   <path d="m131.48 141.91v-40.074h9.2434l5.3394 10.219 4.4782 8.5544h0.11482l4.4208-8.5544 5.2819-10.219h9.3008v40.074h-8.21v-26.295h-0.17223l-2.928 5.8561-7.8081 14.181-7.6358-14.123-3.0429-6.3154h-0.17224v26.697z" aria-label="M"/>
   <path d="m211.2 141.91h-9.0712l-2.8706-9.5305h-13.377l-2.8706 9.5305h-8.8415l13.205-40.074h10.794zm-14.066-16.937-2.4687-8.3248-2.0094-6.8895h-0.28706l-1.952 6.8895-2.4687 8.3248z" aria-label="A"/>
   <path d="m228.16 142.6q-5.2245 0-8.9563-1.8372-3.6744-1.8372-6.258-4.6504l5.7412-5.7986q2.0094 2.2965 4.5356 3.4448 2.5836 1.1482 5.5116 1.1482 3.2151 0 4.7652-1.3205 1.5501-1.3205 1.5501-3.5022 0-1.0908-0.40189-1.952-0.34447-0.9186-1.3779-1.4927-0.97601-0.63154-2.8706-0.86119l-3.9614-0.51671q-4.1911-0.57412-6.9469-2.0668-2.6984-1.5501-4.0189-4.0189-1.3205-2.5262-1.3205-5.8561 0-3.617 1.7798-6.3154 1.8372-2.7558 5.1671-4.3059 3.3873-1.5501 8.0951-1.5501 4.5356 0 7.9803 1.4927 3.4447 1.4353 5.9135 4.1337l-5.7987 5.8561q-1.4353-1.665-3.5022-2.6984-2.0094-1.0908-5.1097-1.0908-2.928 0-4.3633 1.0334-1.4353 1.0334-1.4353 2.8706 0 1.3779 0.4593 2.2391 0.51671 0.86119 1.5501 1.3205 1.0908 0.45929 2.7558 0.74636l3.9615 0.63153q4.1337 0.63154 6.8321 2.1243t4.0189 3.904q1.3205 2.4113 1.3205 5.8561 0 3.8466-1.8372 6.7747-1.7798 2.928-5.2819 4.593-3.5022 1.665-8.497 1.665z" aria-label="S"/>
   <path d="m273.5 141.91-10.621-17.453-5.2245 6.3154v11.138h-8.7267v-40.074h8.7267v19.061h0.34448l5.6838-7.7507 9.0138-11.31h9.8749l-13.492 16.477 14.698 23.596z" aria-label="K"/>
   <path transform="translate(-4.7625)" d="m294.21 101.83v40.074h5.4544v-40.074zm5.4544 0v40.074h21.817v-7.7504h-18.544v-8.6692h15.903v-7.6936h-15.903v-8.2098h18.544v-7.7504zm21.817 0v7.7504h5.4539v-7.7504zm-2.6412 15.96v7.6936h5.4544v-7.6936z" display="inline"/>
   <path d="m329.42 141.91v-40.074h15.099q5.3394 0 9.3008 2.2391 3.9615 2.2391 6.1431 6.7173 2.1817 4.4208 2.1817 11.081t-2.1817 11.138q-2.1817 4.4208-6.1431 6.6598-3.9614 2.2391-9.3008 2.2391zm8.7267-7.7507h6.3728q2.5836 0 4.4782-0.97601t2.8706-2.9854q1.0334-2.0668 1.0334-5.2245v-6.2005q0-3.2151-1.0334-5.2245-0.97601-2.0094-2.8706-2.9854-1.8946-0.97602-4.4782-0.97602h-6.3728z" aria-label="D"/>
  </g>
 </g>
 <g transform="translate(293.21 189.99)" clip-path="url(#clipPath43)" display="none" fill="#fff" stroke-width=".26458">
  <path transform="translate(-1.25e-6)" d="m51.428 80.086v-40.074h15.099q5.3394 0 9.3008 2.2391 3.9615 2.2391 6.1431 6.7173 2.1817 4.4208 2.1817 11.081t-2.1817 11.138q-2.1817 4.4208-6.1431 6.6598-3.9615 2.2391-9.3008 2.2391zm8.7267-7.7507h6.3728q2.5836 0 4.4782-0.97601 1.8946-0.97601 2.8706-2.9854 1.0334-2.0668 1.0334-5.2245v-6.2005q0-3.2151-1.0334-5.2245-0.97601-2.0094-2.8706-2.9854t-4.4782-0.97601h-6.3728z" display="inline" aria-label="D"/>
  <path transform="translate(-1.25e-6)" d="m96.121 40.013v40.074h21.817v-7.7504h-18.544v-8.6692h15.903v-7.6936h-15.903v-8.2098h18.544v-7.7504zm21.817 0v7.7504h5.4539v-7.7504zm-2.6412 15.96v7.6936h5.4544v-7.6936zm2.6412 16.363v7.7504h5.4539v-7.7504zm-12.057-48.341-5.6839 11.138 5.0524 2.4691 7.6931-10.105zm-15.214 16.018v40.074h5.4539v-40.074z" display="inline"/>
  <path d="m131.48 80.086v-40.074h9.2434l5.3394 10.219 4.4782 8.5544h0.11482l4.4208-8.5544 5.2819-10.219h9.3008v40.074h-8.21v-26.295h-0.17223l-2.928 5.8561-7.8081 14.181-7.6358-14.123-3.0429-6.3154h-0.17224v26.697z" aria-label="M"/>
  <path d="m211.2 80.086h-9.0712l-2.8706-9.5305h-13.377l-2.8706 9.5305h-8.8415l13.205-40.074h10.794zm-14.066-16.937-2.4687-8.3248-2.0094-6.8895h-0.28706l-1.952 6.8895-2.4687 8.3248z" aria-label="A"/>
  <path d="m228.16 80.775q-5.2245 0-8.9563-1.8372-3.6744-1.8372-6.258-4.6504l5.7412-5.7987q2.0094 2.2965 4.5356 3.4447 2.5836 1.1482 5.5116 1.1482 3.2151 0 4.7652-1.3205 1.5501-1.3205 1.5501-3.5022 0-1.0908-0.40189-1.952-0.34447-0.9186-1.3779-1.4927-0.97601-0.63154-2.8706-0.86119l-3.9614-0.51671q-4.1911-0.57412-6.9469-2.0668-2.6984-1.5501-4.0189-4.0189-1.3205-2.5261-1.3205-5.8561 0-3.617 1.7798-6.3154 1.8372-2.7558 5.1671-4.3059 3.3873-1.5501 8.0951-1.5501 4.5356 0 7.9803 1.4927 3.4447 1.4353 5.9135 4.1337l-5.7987 5.8561q-1.4353-1.665-3.5022-2.6984-2.0094-1.0908-5.1097-1.0908-2.928 0-4.3633 1.0334-1.4353 1.0334-1.4353 2.8706 0 1.3779 0.4593 2.2391 0.51671 0.86119 1.5501 1.3205 1.0908 0.4593 2.7558 0.74636l3.9615 0.63154q4.1337 0.63154 6.8321 2.1243 2.6984 1.4927 4.0189 3.904 1.3205 2.4113 1.3205 5.8561 0 3.8466-1.8372 6.7747-1.7798 2.928-5.2819 4.593-3.5022 1.665-8.497 1.665z" aria-label="S"/>
  <path d="m277.18 83.531v7.1191h-5.3968q-4.6504 0-6.7747-2.1817-2.1242-2.1817-2.1242-6.3154v-1.665q-4.2485-0.80377-7.4062-3.3299-3.1577-2.5836-4.8801-6.8321-1.665-4.3059-1.665-10.277 0-6.8321 2.1817-11.425 2.1817-4.593 6.1431-6.9469 4.0189-2.3539 9.3008-2.3539 5.3394 0 9.3008 2.3539 3.9614 2.3539 6.1431 6.9469 2.1817 4.593 2.1817 11.425 0 5.7987-1.6076 10.047-1.6076 4.1911-4.5356 6.7747t-7.0043 3.4447v3.2151zm-10.621-10.506q2.641 0 4.4782-1.1482 1.8946-1.2057 2.8706-3.4447 1.0334-2.2391 1.0334-5.3968v-5.9709q0-3.2151-1.0334-5.3968-0.97601-2.2391-2.8706-3.3873-1.8372-1.2057-4.4782-1.2057-2.5836 0-4.4782 1.2057-1.8946 1.1482-2.928 3.3873-0.97601 2.1817-0.97601 5.3968v5.9709q0 3.1577 0.97601 5.3968 1.0334 2.2391 2.928 3.4447 1.8946 1.1482 4.4782 1.1482z" aria-label="Q"/>
  <path d="m289.44 40.013h8.497v24.573q0 2.8132 0.68895 4.7078 0.74636 1.8372 2.3539 2.8132 1.6076 0.9186 4.1911 0.9186t4.1337-0.9186q1.6076-0.97601 2.3539-2.8132 0.74636-1.8946 0.74636-4.7078v-24.573h8.497v23.654q0 5.9135-1.5501 9.7027-1.5501 3.7892-4.9949 5.6264-3.4447 1.7798-9.186 1.7798t-9.186-1.7798q-3.4448-1.8372-4.9949-5.6264-1.5501-3.7892-1.5501-9.7027z" aria-label="U"/>
  <path transform="translate(-1.25e-6)" d="m334.88 40.013v40.074h21.817v-7.7504h-18.544v-8.6692h15.903v-7.6936h-15.903v-8.2098h18.544v-7.7504zm21.817 0v7.7504h5.4539v-7.7504zm-2.6412 15.96v7.6936h5.4544v-7.6936zm2.6412 16.363v7.7504h5.4539v-7.7504zm-12.057-48.341-5.6839 11.138 5.0524 2.4691 7.6931-10.105zm-15.215 16.018v40.074h5.4544v-40.074z" display="inline"/>
 </g>
 <rect y="250" width="1e3" height="250" ry="3.6638" display="none" fill="#fff" stroke-width=".26458"/>
</svg>
