<?xml version="1.0" encoding="UTF-8" standalone="no"?>
<!-- Created with Inkscape (http://www.inkscape.org/) -->

<svg
   width="1000mm"
   height="500mm"
   viewBox="0 0 1000 500"
   version="1.1"
   id="svg1"
   inkscape:version="1.4 (e7c3feb1, 2024-10-09)"
   sodipodi:docname="g-eng-full.svg"
   inkscape:dataloss="true"
   xmlns:inkscape="http://www.inkscape.org/namespaces/inkscape"
   xmlns:sodipodi="http://sodipodi.sourceforge.net/DTD/sodipodi-0.dtd"
   xmlns="http://www.w3.org/2000/svg"
   xmlns:svg="http://www.w3.org/2000/svg">
  <sodipodi:namedview
     id="namedview1"
     pagecolor="#ffffff"
     bordercolor="#000000"
     borderopacity="0.25"
     inkscape:showpageshadow="2"
     inkscape:pageopacity="0.0"
     inkscape:pagecheckerboard="0"
     inkscape:deskcolor="#d1d1d1"
     inkscape:document-units="mm"
     inkscape:zoom="0.54481304"
     inkscape:cx="1853.847"
     inkscape:cy="954.45586"
     inkscape:window-width="1544"
     inkscape:window-height="975"
     inkscape:window-x="0"
     inkscape:window-y="33"
     inkscape:window-maximized="0"
     inkscape:current-layer="svg1"
     showguides="false" />
  <defs
     id="defs1">
    <rect
       x="-163.69377"
       y="-2050.9866"
       width="1030.3078"
       height="674.03317"
       id="rect4" />
    <clipPath
       clipPathUnits="userSpaceOnUse"
       id="clipPath28">
      <rect
         style="fill:#5c5c5c;fill-opacity:1;stroke-width:0.264583"
         id="rect28"
         width="1000"
         height="250"
         x="0"
         y="0"
         ry="3.6638081"
         inkscape:label="Black_bgd" />
    </clipPath>
    <clipPath
       clipPathUnits="userSpaceOnUse"
       id="clipPath30">
      <rect
         style="display:inline;fill:#dfdfdf;fill-opacity:1;stroke-width:0.264583"
         id="rect31"
         width="1000"
         height="250"
         x="0"
         y="250"
         ry="3.6638081"
         inkscape:label="White_bgd" />
    </clipPath>
    <clipPath
       clipPathUnits="userSpaceOnUse"
       id="clipPath69">
      <rect
         style="display:inline;fill:#5c5c5c;fill-opacity:1;stroke-width:0.264583"
         id="rect69"
         width="1000"
         height="250"
         x="0"
         y="0"
         ry="3.6638081"
         inkscape:label="Black_bgd" />
    </clipPath>
    <clipPath
       clipPathUnits="userSpaceOnUse"
       id="clipPath32">
      <rect
         style="fill:#e6c300;fill-opacity:1;stroke-width:0.264583"
         id="rect33"
         width="20.36558"
         height="50.870243"
         x="141.68498"
         y="211.2601"
         ry="0" />
    </clipPath>
    <clipPath
       clipPathUnits="userSpaceOnUse"
       id="clipPath32-1">
      <rect
         style="fill:#e6c300;fill-opacity:1;stroke-width:0.264583"
         id="rect33-9"
         width="20.36558"
         height="50.870243"
         x="141.68498"
         y="211.2601"
         ry="0" />
    </clipPath>
    <clipPath
       clipPathUnits="userSpaceOnUse"
       id="clipPath32-0">
      <rect
         style="fill:#e6c300;fill-opacity:1;stroke-width:0.264583"
         id="rect33-4"
         width="20.36558"
         height="50.870243"
         x="141.68498"
         y="211.2601"
         ry="0" />
    </clipPath>
    <clipPath
       clipPathUnits="userSpaceOnUse"
       id="clipPath51">
      <rect
         style="display:inline;fill:#5c5c5c;fill-opacity:1;stroke-width:0.264583"
         id="rect51"
         width="1000"
         height="250"
         x="-293.21271"
         y="-130.7747"
         ry="3.6638081"
         inkscape:label="Black" />
    </clipPath>
    <clipPath
       clipPathUnits="userSpaceOnUse"
       id="clipPath52">
      <rect
         style="display:inline;fill:#dfdfdf;fill-opacity:1;stroke-width:0.264583"
         id="rect52"
         width="1000"
         height="250"
         x="-293.21271"
         y="119.22529"
         ry="3.6638081"
         inkscape:label="White" />
    </clipPath>
    <clipPath
       clipPathUnits="userSpaceOnUse"
       id="clipPath70">
      <rect
         style="display:inline;fill:#5c5c5c;fill-opacity:1;stroke-width:0.264583"
         id="rect70"
         width="1000"
         height="250"
         x="-293.21268"
         y="-190.03172"
         ry="3.6638081"
         inkscape:label="Black" />
    </clipPath>
    <clipPath
       clipPathUnits="userSpaceOnUse"
       id="clipPath72">
      <rect
         style="display:inline;fill:#dfdfdf;fill-opacity:1;stroke-width:0.264583"
         id="rect73"
         width="1000"
         height="250"
         x="-293.21268"
         y="59.968281"
         ry="3.6638081"
         inkscape:label="White" />
    </clipPath>
    <clipPath
       clipPathUnits="userSpaceOnUse"
       id="clipPath21">
      <rect
         style="display:inline;fill:#000000;fill-opacity:1;stroke-width:0.264583"
         id="rect22"
         width="1000"
         height="250"
         x="-293.21271"
         y="-128.12886"
         ry="3.6638081"
         inkscape:label="Black" />
    </clipPath>
    <clipPath
       clipPathUnits="userSpaceOnUse"
       id="clipPath22">
      <rect
         style="display:inline;fill:#dfdfdf;fill-opacity:1;stroke-width:0.264583"
         id="rect23"
         width="1000"
         height="250"
         x="-293.21271"
         y="121.87114"
         ry="3.6638081"
         inkscape:label="White" />
    </clipPath>
    <clipPath
       clipPathUnits="userSpaceOnUse"
       id="clipPath43">
      <rect
         style="display:inline;fill:#000000;fill-opacity:1;stroke-width:0.264583"
         id="rect43"
         width="1000"
         height="250"
         x="-293.21268"
         y="-189.98718"
         ry="3.6638081"
         inkscape:label="Black" />
    </clipPath>
    <clipPath
       clipPathUnits="userSpaceOnUse"
       id="clipPath44">
      <rect
         style="display:inline;fill:#dfdfdf;fill-opacity:1;stroke-width:0.264583"
         id="rect44"
         width="1000"
         height="250"
         x="-293.21268"
         y="60.012821"
         ry="3.6638081"
         inkscape:label="White" />
    </clipPath>
  </defs>
  <g
     id="g36"
     inkscape:label="g-fra-full"
     transform="translate(293.21268,189.98718)"
     style="display:inline;fill:#550000;fill-opacity:1">
    <path
       d="M 51.427686,80.086456 V 40.012602 h 15.099461 q 5.339353,0 9.300809,2.239083 3.961455,2.239084 6.143126,6.717251 2.181672,4.420755 2.181672,11.080593 0,6.659838 -2.181672,11.138005 -2.181671,4.420755 -6.143126,6.659839 -3.961456,2.239083 -9.300809,2.239083 z m 8.726685,-7.750674 h 6.372776 q 2.583558,0 4.478167,-0.97601 1.894609,-0.976011 2.87062,-2.985445 1.033423,-2.066847 1.033423,-5.224528 v -6.20054 q 0,-3.215094 -1.033423,-5.224528 -0.976011,-2.009434 -2.87062,-2.985445 -1.894609,-0.976011 -4.478167,-0.976011 h -6.372776 z"
       id="f_red_1"
       style="font-weight:bold;font-size:57.4124px;font-family:'IBM Plex Sans';-inkscape-font-specification:'IBM Plex Sans, Bold';fill:#550000;fill-opacity:1;stroke-width:0.264582"
       aria-label="D"
       inkscape:label="f_red_1" />
    <path
       id="f_red_2"
       style="font-weight:bold;font-size:57.4124px;font-family:'IBM Plex Sans';-inkscape-font-specification:'IBM Plex Sans, Bold';display:inline;fill:#550000;stroke-width:0.264582"
       d="m 96.121178,40.012735 v 40.073522 h 21.816752 v -7.750431 h -13.09015 -5.453933 v -8.669238 h 5.453933 10.44897 v -7.693587 h -10.44897 -5.453933 v -8.209835 h 5.453933 13.09015 v -7.750431 z m 21.816752,0 v 7.750431 h 5.45394 v -7.750431 z m -2.64118,15.960266 v 7.693587 h 5.45445 v -7.693587 z m 2.64118,16.362825 v 7.750431 h 5.45394 v -7.750431 z m -12.05662,-48.341235 -5.68389,11.137821 5.0524,2.4691 7.69307,-10.104809 z M 90.667248,40.012735 v 40.073522 h 5.45393 V 40.012735 Z"
       inkscape:label="f_red_2" />
    <path
       d="M 131.48069,80.086456 V 40.012602 h 9.2434 l 5.33935,10.219407 4.47817,8.554447 h 0.11482 l 4.42076,-8.554447 5.28194,-10.219407 h 9.30081 v 40.073854 h -8.20998 v -20.094339 -6.20054 h -0.17223 l -2.92804,5.856065 -7.80808,14.180863 -7.63585,-14.12345 -3.04286,-6.315364 h -0.17224 v 6.602426 20.094339 z"
       id="f_red_3"
       style="font-weight:bold;font-size:57.4124px;font-family:'IBM Plex Sans';-inkscape-font-specification:'IBM Plex Sans, Bold';fill:#550000;fill-opacity:1;stroke-width:0.264582"
       aria-label="M"
       inkscape:label="f_red_3" />
    <path
       d="m 211.20161,80.086456 h -9.07115 l -2.87062,-9.530458 h -13.37709 l -2.87062,9.530458 h -8.84151 L 187.37547,40.012602 H 198.169 Z m -14.06603,-16.936657 -2.46874,-8.324798 -2.00943,-6.889488 h -0.28706 l -1.95202,6.889488 -2.46874,8.324798 z"
       id="f_red_4"
       style="font-weight:bold;font-size:57.4124px;font-family:'IBM Plex Sans';-inkscape-font-specification:'IBM Plex Sans, Bold';fill:#550000;fill-opacity:1;stroke-width:0.264582"
       aria-label="A"
       inkscape:label="f_red_4" />
    <path
       d="m 228.1583,80.775405 q -5.22453,0 -8.95633,-1.837197 -3.6744,-1.837196 -6.25795,-4.650404 l 5.74124,-5.798652 q 2.00943,2.296496 4.53558,3.444744 2.58355,1.148248 5.51159,1.148248 3.21509,0 4.76522,-1.320486 1.55014,-1.320485 1.55014,-3.502156 0,-1.090836 -0.40189,-1.952022 -0.34447,-0.918598 -1.3779,-1.492722 -0.97601,-0.631536 -2.87062,-0.861186 l -3.96145,-0.516711 q -4.19111,-0.574124 -6.9469,-2.066847 -2.69838,-1.550135 -4.01887,-4.018868 -1.32048,-2.526145 -1.32048,-5.856065 0,-3.616981 1.77978,-6.315363 1.8372,-2.755796 5.16712,-4.30593 3.38733,-1.550135 8.09514,-1.550135 4.53558,0 7.98033,1.492722 3.44474,1.43531 5.91348,4.133693 l -5.79866,5.856065 q -1.43531,-1.66496 -3.50215,-2.698383 -2.00944,-1.090836 -5.10971,-1.090836 -2.92803,0 -4.36334,1.033423 -1.43531,1.033424 -1.43531,2.87062 0,1.377898 0.4593,2.239084 0.51671,0.861186 1.55013,1.320485 1.09084,0.459299 2.7558,0.746361 l 3.96146,0.631537 q 4.13369,0.631536 6.83207,2.124259 2.69838,1.492722 4.01887,3.904043 1.32048,2.41132 1.32048,5.856064 0,3.846631 -1.83719,6.774664 -1.77979,2.928032 -5.28194,4.592992 -3.50216,1.664959 -8.49704,1.664959 z"
       id="f_red_5"
       style="font-weight:bold;font-size:57.4124px;font-family:'IBM Plex Sans';-inkscape-font-specification:'IBM Plex Sans, Bold';fill:#550000;fill-opacity:1;stroke-width:0.264582"
       aria-label="S"
       inkscape:label="f_red_5" />
    <path
       d="m 277.17608,83.5312 v 7.119138 h -5.39676 q -4.65041,0 -6.77467,-2.181671 -2.12425,-2.181672 -2.12425,-6.315364 v -1.66496 q -4.24852,-0.803773 -7.4062,-3.329919 -3.15769,-2.583558 -4.88006,-6.832076 -1.66496,-4.30593 -1.66496,-10.276819 0,-6.832076 2.18167,-11.425068 2.18168,-4.592991 6.14313,-6.9469 4.01887,-2.353908 9.30081,-2.353908 5.33935,0 9.30081,2.353908 3.96145,2.353909 6.14313,6.9469 2.18167,4.592992 2.18167,11.425068 0,5.798652 -1.60755,10.04717 -1.60755,4.191105 -4.53558,6.774663 -2.92803,2.583558 -7.00431,3.444744 V 83.5312 Z M 266.55479,73.024731 q 2.64097,0 4.47817,-1.148248 1.89461,-1.20566 2.87062,-3.444744 1.03342,-2.239083 1.03342,-5.396765 v -5.97089 q 0,-3.215094 -1.03342,-5.396765 -0.97601,-2.239084 -2.87062,-3.387332 -1.8372,-1.20566 -4.47817,-1.20566 -2.58356,0 -4.47817,1.20566 -1.89461,1.148248 -2.92803,3.387332 -0.97601,2.181671 -0.97601,5.396765 v 5.97089 q 0,3.157682 0.97601,5.396765 1.03342,2.239084 2.92803,3.444744 1.89461,1.148248 4.47817,1.148248 z"
       id="f_red_6"
       style="font-weight:bold;font-size:57.4124px;font-family:'IBM Plex Sans';-inkscape-font-specification:'IBM Plex Sans, Bold';fill:#550000;fill-opacity:1;stroke-width:0.264582"
       aria-label="Q"
       inkscape:label="f_red_6" />
    <path
       d="m 289.44385,40.012602 h 8.49704 v 24.572506 q 0,2.813208 0.68895,4.707817 0.74636,1.837197 2.3539,2.813208 1.60755,0.918598 4.19111,0.918598 2.58356,0 4.13369,-0.918598 1.60755,-0.976011 2.35391,-2.813208 0.74636,-1.894609 0.74636,-4.707817 V 40.012602 h 8.49704 V 63.66651 q 0,5.913477 -1.55014,9.702696 -1.55013,3.789218 -4.99488,5.626415 -3.44474,1.779784 -9.18598,1.779784 -5.74124,0 -9.18598,-1.779784 -3.44475,-1.837197 -4.99488,-5.626415 -1.55014,-3.789219 -1.55014,-9.702696 z"
       id="f_red_7"
       style="font-weight:bold;font-size:57.4124px;font-family:'IBM Plex Sans';-inkscape-font-specification:'IBM Plex Sans, Bold';display:inline;fill:#550000;fill-opacity:1;stroke-width:0.264582"
       aria-label="U"
       inkscape:label="f_red_7"
       transform="translate(-1.25e-6)" />
    <path
       id="f_red_8"
       style="font-weight:bold;font-size:57.4124px;font-family:'IBM Plex Sans';-inkscape-font-specification:'IBM Plex Sans, Bold';display:inline;fill:#550000;stroke-width:0.264582"
       d="m 334.87611,40.012735 v 40.073522 h 21.81676 v -7.750431 h -13.09016 -5.45393 v -8.669238 h 5.45393 10.44898 v -7.693587 h -10.44898 -5.45393 v -8.209835 h 5.45393 13.09016 v -7.750431 z m 21.81676,0 v 7.750431 h 5.45393 v -7.750431 z m -2.64118,15.960266 v 7.693587 h 5.45445 v -7.693587 z m 2.64118,16.362825 v 7.750431 h 5.45393 v -7.750431 z m -12.05663,-48.341235 -5.68389,11.137821 5.05241,2.4691 7.69307,-10.104809 z m -15.21457,16.018144 v 40.073522 h 5.45444 V 40.012735 Z"
       inkscape:label="f_red_8" />
  </g>
  <g
     id="g35"
     style="display:none;fill:#f9f9f9;fill-opacity:1"
     inkscape:label="g-eng-full"
     transform="translate(293.21271,128.12886)">
    <path
       d="m 51.427685,101.83421 h 8.497035 v 24.57251 q 0,2.81321 0.688949,4.70781 0.746361,1.8372 2.353908,2.81321 1.607547,0.9186 4.191105,0.9186 2.583558,0 4.133693,-0.9186 1.607547,-0.97601 2.353909,-2.81321 0.746361,-1.8946 0.746361,-4.70781 v -24.57251 h 8.497035 v 23.65391 q 0,5.91348 -1.550135,9.7027 -1.550135,3.78921 -4.994879,5.62641 -3.444744,1.77978 -9.185984,1.77978 -5.741239,0 -9.185983,-1.77978 -3.444744,-1.8372 -4.994879,-5.62641 -1.550135,-3.78922 -1.550135,-9.7027 z"
       id="e_blue_1"
       style="font-weight:bold;font-size:57.4124px;font-family:'IBM Plex Sans';-inkscape-font-specification:'IBM Plex Sans, Bold';fill:#f9f9f9;fill-opacity:1;stroke-width:0.264582"
       aria-label="U"
       inkscape:label="e_blue_1" />
    <path
       d="m 113.86163,141.90807 -10.96576,-18.9461 -3.846636,-8.03773 h -0.172237 v 8.38221 18.60162 h -8.209973 v -40.07386 h 9.530456 l 10.96577,18.94609 3.84663,8.03774 h 0.17224 v -8.38221 -18.60162 h 8.20997 v 40.07386 z"
       id="e_blue_2"
       style="font-weight:bold;font-size:57.4124px;font-family:'IBM Plex Sans';-inkscape-font-specification:'IBM Plex Sans, Bold';fill:#f9f9f9;fill-opacity:1;stroke-width:0.264582"
       aria-label="N"
       inkscape:label="e_blue_2" />
    <path
       d="m 131.48069,141.90807 v -40.07386 h 9.2434 l 5.33935,10.21941 4.47817,8.55445 h 0.11482 l 4.42076,-8.55445 5.28194,-10.21941 h 9.30081 v 40.07386 h -8.20998 v -20.09434 -6.20054 h -0.17223 l -2.92804,5.85606 -7.80808,14.18086 -7.63585,-14.12345 -3.04286,-6.31536 h -0.17224 v 6.60243 20.09434 z"
       id="e_blue_3"
       style="font-weight:bold;font-size:57.4124px;font-family:'IBM Plex Sans';-inkscape-font-specification:'IBM Plex Sans, Bold';fill:#f9f9f9;fill-opacity:1;stroke-width:0.264582"
       aria-label="M"
       inkscape:label="e_blue_3" />
    <path
       d="m 211.20161,141.90807 h -9.07115 l -2.87062,-9.53046 h -13.37709 l -2.87062,9.53046 h -8.84151 l 13.20485,-40.07386 H 198.169 Z m -14.06603,-16.93666 -2.46874,-8.3248 -2.00943,-6.88949 h -0.28706 l -1.95202,6.88949 -2.46874,8.3248 z"
       id="e_blue_4"
       style="font-weight:bold;font-size:57.4124px;font-family:'IBM Plex Sans';-inkscape-font-specification:'IBM Plex Sans, Bold';fill:#f9f9f9;fill-opacity:1;stroke-width:0.264582"
       aria-label="A"
       inkscape:label="e_blue_4" />
    <path
       d="m 228.1583,142.59701 q -5.22453,0 -8.95633,-1.83719 -3.6744,-1.8372 -6.25795,-4.65041 l 5.74124,-5.79865 q 2.00943,2.2965 4.53558,3.44475 2.58355,1.14824 5.51159,1.14824 3.21509,0 4.76522,-1.32048 1.55014,-1.32049 1.55014,-3.50216 0,-1.09083 -0.40189,-1.95202 -0.34447,-0.9186 -1.3779,-1.49272 -0.97601,-0.63154 -2.87062,-0.86119 l -3.96145,-0.51671 q -4.19111,-0.57412 -6.9469,-2.06685 -2.69838,-1.55013 -4.01887,-4.01886 -1.32048,-2.52615 -1.32048,-5.85607 0,-3.61698 1.77978,-6.31536 1.8372,-2.7558 5.16712,-4.30593 3.38733,-1.55014 8.09514,-1.55014 4.53558,0 7.98033,1.49272 3.44474,1.43531 5.91348,4.1337 l -5.79866,5.85606 q -1.43531,-1.66496 -3.50215,-2.69838 -2.00944,-1.09084 -5.10971,-1.09084 -2.92803,0 -4.36334,1.03343 -1.43531,1.03342 -1.43531,2.87062 0,1.37789 0.4593,2.23908 0.51671,0.86119 1.55013,1.32049 1.09084,0.45929 2.7558,0.74636 l 3.96146,0.63153 q 4.13369,0.63154 6.83207,2.12426 2.69838,1.49272 4.01887,3.90405 1.32048,2.41132 1.32048,5.85606 0,3.84663 -1.83719,6.77466 -1.77979,2.92804 -5.28194,4.593 -3.50216,1.66495 -8.49704,1.66495 z"
       id="e_blue_5"
       style="font-weight:bold;font-size:57.4124px;font-family:'IBM Plex Sans';-inkscape-font-specification:'IBM Plex Sans, Bold';fill:#f9f9f9;fill-opacity:1;stroke-width:0.264582"
       aria-label="S"
       inkscape:label="e_blue_5" />
    <path
       d="m 273.50168,141.90807 -10.62129,-17.45337 -5.22453,6.31536 v 11.13801 h -8.72668 v -40.07386 h 8.72668 v 11.31024 7.75068 h 0.34448 l 5.68382,-7.75068 9.01375,-11.31024 h 9.87493 l -13.49191,16.47736 14.69757,23.5965 z"
       id="e_blue_6"
       style="font-weight:bold;font-size:57.4124px;font-family:'IBM Plex Sans';-inkscape-font-specification:'IBM Plex Sans, Bold';fill:#f9f9f9;fill-opacity:1;stroke-width:0.264582"
       aria-label="K"
       inkscape:label="e_blue_6" />
    <path
       id="e_blue_7"
       style="font-weight:bold;font-size:57.4124px;font-family:'IBM Plex Sans';-inkscape-font-specification:'IBM Plex Sans, Bold';display:inline;fill:#f9f9f9;fill-opacity:1;stroke-width:0.264582"
       d="m 294.20622,101.83436 v 40.07353 h 5.45444 v -40.07353 z m 5.45444,0 v 40.07353 h 21.81676 v -7.75043 h -18.54409 v -8.66924 h 15.90291 v -7.69359 h -15.90291 v -8.20983 h 18.54409 v -7.75044 z m 21.81676,0 v 7.75044 h 5.45393 v -7.75044 z m -2.64118,15.96027 v 7.69359 h 5.45444 v -7.69359 z m 2.64118,16.36283 v 7.75043 h 5.45393 v -7.75043 z"
       transform="translate(-4.7625048)"
       inkscape:label="e_blue_7" />
    <path
       d="m 329.42182,141.90807 v -40.07386 h 15.09946 q 5.33936,0 9.30081,2.23908 3.96146,2.23909 6.14313,6.71726 2.18167,4.42075 2.18167,11.08059 0,6.65984 -2.18167,11.138 -2.18167,4.42076 -6.14313,6.65984 -3.96145,2.23909 -9.30081,2.23909 z m 8.72669,-7.75068 h 6.37277 q 2.58356,0 4.47817,-0.97601 1.89461,-0.97601 2.87062,-2.98544 1.03342,-2.06685 1.03342,-5.22453 v -6.20054 q 0,-3.2151 -1.03342,-5.22453 -0.97601,-2.00943 -2.87062,-2.98544 -1.89461,-0.97602 -4.47817,-0.97602 h -6.37277 z"
       id="e_blue_8"
       style="font-weight:bold;font-size:57.4124px;font-family:'IBM Plex Sans';-inkscape-font-specification:'IBM Plex Sans, Bold';fill:#f9f9f9;fill-opacity:1;stroke-width:0.264582"
       aria-label="D"
       inkscape:label="e_blue_8" />
  </g>
  <g
     id="g9"
     style="display:none;fill:#000000;fill-opacity:1"
     inkscape:label="g-eng-bottom-black"
     transform="translate(293.21271,128.12886)"
     clip-path="url(#clipPath22)">
    <path
       d="m 51.427685,101.83421 h 8.497035 v 24.57251 q 0,2.81321 0.688949,4.70781 0.746361,1.8372 2.353908,2.81321 1.607547,0.9186 4.191105,0.9186 2.583558,0 4.133693,-0.9186 1.607547,-0.97601 2.353909,-2.81321 0.746361,-1.8946 0.746361,-4.70781 v -24.57251 h 8.497035 v 23.65391 q 0,5.91348 -1.550135,9.7027 -1.550135,3.78921 -4.994879,5.62641 -3.444744,1.77978 -9.185984,1.77978 -5.741239,0 -9.185983,-1.77978 -3.444744,-1.8372 -4.994879,-5.62641 -1.550135,-3.78922 -1.550135,-9.7027 z"
       id="e_black_1"
       style="font-weight:bold;font-size:57.4124px;font-family:'IBM Plex Sans';-inkscape-font-specification:'IBM Plex Sans, Bold';fill:#000000;fill-opacity:1;stroke-width:0.264582"
       aria-label="U"
       inkscape:label="e_black_1" />
    <path
       d="m 113.86163,141.90807 -10.96576,-18.9461 -3.846636,-8.03773 h -0.172237 v 8.38221 18.60162 h -8.209973 v -40.07386 h 9.530456 l 10.96577,18.94609 3.84663,8.03774 h 0.17224 v -8.38221 -18.60162 h 8.20997 v 40.07386 z"
       id="e_black_2"
       style="font-weight:bold;font-size:57.4124px;font-family:'IBM Plex Sans';-inkscape-font-specification:'IBM Plex Sans, Bold';fill:#000000;fill-opacity:1;stroke-width:0.264582"
       aria-label="N"
       inkscape:label="e_black_2" />
    <path
       d="m 131.48069,141.90807 v -40.07386 h 9.2434 l 5.33935,10.21941 4.47817,8.55445 h 0.11482 l 4.42076,-8.55445 5.28194,-10.21941 h 9.30081 v 40.07386 h -8.20998 v -20.09434 -6.20054 h -0.17223 l -2.92804,5.85606 -7.80808,14.18086 -7.63585,-14.12345 -3.04286,-6.31536 h -0.17224 v 6.60243 20.09434 z"
       id="e_black_3"
       style="font-weight:bold;font-size:57.4124px;font-family:'IBM Plex Sans';-inkscape-font-specification:'IBM Plex Sans, Bold';fill:#000000;fill-opacity:1;stroke-width:0.264582"
       aria-label="M"
       inkscape:label="e_black_3" />
    <path
       d="m 211.20161,141.90807 h -9.07115 l -2.87062,-9.53046 h -13.37709 l -2.87062,9.53046 h -8.84151 l 13.20485,-40.07386 H 198.169 Z m -14.06603,-16.93666 -2.46874,-8.3248 -2.00943,-6.88949 h -0.28706 l -1.95202,6.88949 -2.46874,8.3248 z"
       id="e_black_4"
       style="font-weight:bold;font-size:57.4124px;font-family:'IBM Plex Sans';-inkscape-font-specification:'IBM Plex Sans, Bold';fill:#000000;fill-opacity:1;stroke-width:0.264582"
       aria-label="A"
       inkscape:label="e_black_4" />
    <path
       d="m 228.1583,142.59701 q -5.22453,0 -8.95633,-1.83719 -3.6744,-1.8372 -6.25795,-4.65041 l 5.74124,-5.79865 q 2.00943,2.2965 4.53558,3.44475 2.58355,1.14824 5.51159,1.14824 3.21509,0 4.76522,-1.32048 1.55014,-1.32049 1.55014,-3.50216 0,-1.09083 -0.40189,-1.95202 -0.34447,-0.9186 -1.3779,-1.49272 -0.97601,-0.63154 -2.87062,-0.86119 l -3.96145,-0.51671 q -4.19111,-0.57412 -6.9469,-2.06685 -2.69838,-1.55013 -4.01887,-4.01886 -1.32048,-2.52615 -1.32048,-5.85607 0,-3.61698 1.77978,-6.31536 1.8372,-2.7558 5.16712,-4.30593 3.38733,-1.55014 8.09514,-1.55014 4.53558,0 7.98033,1.49272 3.44474,1.43531 5.91348,4.1337 l -5.79866,5.85606 q -1.43531,-1.66496 -3.50215,-2.69838 -2.00944,-1.09084 -5.10971,-1.09084 -2.92803,0 -4.36334,1.03343 -1.43531,1.03342 -1.43531,2.87062 0,1.37789 0.4593,2.23908 0.51671,0.86119 1.55013,1.32049 1.09084,0.45929 2.7558,0.74636 l 3.96146,0.63153 q 4.13369,0.63154 6.83207,2.12426 2.69838,1.49272 4.01887,3.90405 1.32048,2.41132 1.32048,5.85606 0,3.84663 -1.83719,6.77466 -1.77979,2.92804 -5.28194,4.593 -3.50216,1.66495 -8.49704,1.66495 z"
       id="e_black_5"
       style="font-weight:bold;font-size:57.4124px;font-family:'IBM Plex Sans';-inkscape-font-specification:'IBM Plex Sans, Bold';fill:#000000;fill-opacity:1;stroke-width:0.264582"
       aria-label="S"
       inkscape:label="e_black_5" />
    <path
       d="m 273.50168,141.90807 -10.62129,-17.45337 -5.22453,6.31536 v 11.13801 h -8.72668 v -40.07386 h 8.72668 v 11.31024 7.75068 h 0.34448 l 5.68382,-7.75068 9.01375,-11.31024 h 9.87493 l -13.49191,16.47736 14.69757,23.5965 z"
       id="e_black_6"
       style="font-weight:bold;font-size:57.4124px;font-family:'IBM Plex Sans';-inkscape-font-specification:'IBM Plex Sans, Bold';fill:#000000;fill-opacity:1;stroke-width:0.264582"
       aria-label="K"
       inkscape:label="e_black_6" />
    <path
       id="e_black_7"
       style="font-weight:bold;font-size:57.4124px;font-family:'IBM Plex Sans';-inkscape-font-specification:'IBM Plex Sans, Bold';display:inline;fill:#000000;fill-opacity:1;stroke-width:0.264582"
       d="m 294.20622,101.83436 v 40.07353 h 5.45444 v -40.07353 z m 5.45444,0 v 40.07353 h 21.81676 v -7.75043 h -18.54409 v -8.66924 h 15.90291 v -7.69359 h -15.90291 v -8.20983 h 18.54409 v -7.75044 z m 19.17558,15.96027 v 7.69359 h 5.45444 v -7.69359 z m 2.64118,16.36283 v 7.75043 h 5.45393 v -7.75043 z"
       transform="translate(-4.7625048)"
       inkscape:label="e_black_7" />
    <path
       d="m 329.42182,141.90807 v -40.07386 h 15.09946 q 5.33936,0 9.30081,2.23908 3.96146,2.23909 6.14313,6.71726 2.18167,4.42075 2.18167,11.08059 0,6.65984 -2.18167,11.138 -2.18167,4.42076 -6.14313,6.65984 -3.96145,2.23909 -9.30081,2.23909 z m 8.72669,-7.75068 h 6.37277 q 2.58356,0 4.47817,-0.97601 1.89461,-0.97601 2.87062,-2.98544 1.03342,-2.06685 1.03342,-5.22453 v -6.20054 q 0,-3.2151 -1.03342,-5.22453 -0.97601,-2.00943 -2.87062,-2.98544 -1.89461,-0.97602 -4.47817,-0.97602 h -6.37277 z"
       id="e_black_8"
       style="font-weight:bold;font-size:57.4124px;font-family:'IBM Plex Sans';-inkscape-font-specification:'IBM Plex Sans, Bold';fill:#000000;fill-opacity:1;stroke-width:0.264582"
       aria-label="D"
       inkscape:label="e_black_8" />
  </g>
  <g
     id="g3"
     style="display:inline">
    <rect
       style="display:inline;fill:#ffffff;fill-opacity:1;stroke-width:0.264583"
       id="White_bgd"
       width="1000"
       height="250"
       x="0"
       y="250"
       ry="3.6638081"
       inkscape:label="White" />
    <g
       id="g32"
       inkscape:label="g-fra-bottom-black"
       transform="translate(293.21268,189.98718)"
       style="display:inline;fill:#000000;fill-opacity:1"
       clip-path="url(#clipPath44)">
      <path
         d="M 51.427686,80.086456 V 40.012602 h 15.099461 q 5.339353,0 9.300809,2.239083 3.961455,2.239084 6.143126,6.717251 2.181672,4.420755 2.181672,11.080593 0,6.659838 -2.181672,11.138005 -2.181671,4.420755 -6.143126,6.659839 -3.961456,2.239083 -9.300809,2.239083 z m 8.726685,-7.750674 h 6.372776 q 2.583558,0 4.478167,-0.97601 1.894609,-0.976011 2.87062,-2.985445 1.033423,-2.066847 1.033423,-5.224528 v -6.20054 q 0,-3.215094 -1.033423,-5.224528 -0.976011,-2.009434 -2.87062,-2.985445 -1.894609,-0.976011 -4.478167,-0.976011 h -6.372776 z"
         id="f_black_1"
         style="font-weight:bold;font-size:57.4124px;font-family:'IBM Plex Sans';-inkscape-font-specification:'IBM Plex Sans, Bold';display:inline;fill:#000000;fill-opacity:1;stroke-width:0.264582"
         aria-label="D"
         inkscape:label="f_black_1" />
      <path
         id="f_black_2"
         style="font-weight:bold;font-size:57.4124px;font-family:'IBM Plex Sans';-inkscape-font-specification:'IBM Plex Sans, Bold';display:inline;stroke-width:0.264582"
         d="m 96.121178,40.012735 v 40.073522 h 21.816752 v -7.750431 h -13.09015 -5.453933 v -8.669238 h 5.453933 10.44897 v -7.693587 h -10.44897 -5.453933 v -8.209835 h 5.453933 13.09015 v -7.750431 z m 21.816752,0 v 7.750431 h 5.45394 v -7.750431 z m -2.64118,15.960266 v 7.693587 h 5.45445 v -7.693587 z m 2.64118,16.362825 v 7.750431 h 5.45394 v -7.750431 z m -12.05662,-48.341235 -5.68389,11.137821 5.0524,2.4691 7.69307,-10.104809 z M 90.667248,40.012735 v 40.073522 h 5.45393 V 40.012735 Z"
         inkscape:label="f_black_2" />
      <path
         d="M 131.48069,80.086456 V 40.012602 h 9.2434 l 5.33935,10.219407 4.47817,8.554447 h 0.11482 l 4.42076,-8.554447 5.28194,-10.219407 h 9.30081 v 40.073854 h -8.20998 v -20.094339 -6.20054 h -0.17223 l -2.92804,5.856065 -7.80808,14.180863 -7.63585,-14.12345 -3.04286,-6.315364 h -0.17224 v 6.602426 20.094339 z"
         id="f_black_3"
         style="font-weight:bold;font-size:57.4124px;font-family:'IBM Plex Sans';-inkscape-font-specification:'IBM Plex Sans, Bold';fill:#000000;fill-opacity:1;stroke-width:0.264582"
         aria-label="M"
         inkscape:label="f_black_3" />
      <path
         d="m 211.20161,80.086456 h -9.07115 l -2.87062,-9.530458 h -13.37709 l -2.87062,9.530458 h -8.84151 L 187.37547,40.012602 H 198.169 Z m -14.06603,-16.936657 -2.46874,-8.324798 -2.00943,-6.889488 h -0.28706 l -1.95202,6.889488 -2.46874,8.324798 z"
         id="f_black_4"
         style="font-weight:bold;font-size:57.4124px;font-family:'IBM Plex Sans';-inkscape-font-specification:'IBM Plex Sans, Bold';fill:#000000;fill-opacity:1;stroke-width:0.264582"
         aria-label="A"
         inkscape:label="f_black_4" />
      <path
         d="m 228.1583,80.775405 q -5.22453,0 -8.95633,-1.837197 -3.6744,-1.837196 -6.25795,-4.650404 l 5.74124,-5.798652 q 2.00943,2.296496 4.53558,3.444744 2.58355,1.148248 5.51159,1.148248 3.21509,0 4.76522,-1.320486 1.55014,-1.320485 1.55014,-3.502156 0,-1.090836 -0.40189,-1.952022 -0.34447,-0.918598 -1.3779,-1.492722 -0.97601,-0.631536 -2.87062,-0.861186 l -3.96145,-0.516711 q -4.19111,-0.574124 -6.9469,-2.066847 -2.69838,-1.550135 -4.01887,-4.018868 -1.32048,-2.526145 -1.32048,-5.856065 0,-3.616981 1.77978,-6.315363 1.8372,-2.755796 5.16712,-4.30593 3.38733,-1.550135 8.09514,-1.550135 4.53558,0 7.98033,1.492722 3.44474,1.43531 5.91348,4.133693 l -5.79866,5.856065 q -1.43531,-1.66496 -3.50215,-2.698383 -2.00944,-1.090836 -5.10971,-1.090836 -2.92803,0 -4.36334,1.033423 -1.43531,1.033424 -1.43531,2.87062 0,1.377898 0.4593,2.239084 0.51671,0.861186 1.55013,1.320485 1.09084,0.459299 2.7558,0.746361 l 3.96146,0.631537 q 4.13369,0.631536 6.83207,2.124259 2.69838,1.492722 4.01887,3.904043 1.32048,2.41132 1.32048,5.856064 0,3.846631 -1.83719,6.774664 -1.77979,2.928032 -5.28194,4.592992 -3.50216,1.664959 -8.49704,1.664959 z"
         id="f_black_5"
         style="font-weight:bold;font-size:57.4124px;font-family:'IBM Plex Sans';-inkscape-font-specification:'IBM Plex Sans, Bold';fill:#000000;fill-opacity:1;stroke-width:0.264582"
         aria-label="S"
         inkscape:label="f_black_5" />
      <path
         d="m 277.17608,83.5312 v 7.119138 h -5.39676 q -4.65041,0 -6.77467,-2.181671 -2.12425,-2.181672 -2.12425,-6.315364 v -1.66496 q -4.24852,-0.803773 -7.4062,-3.329919 -3.15769,-2.583558 -4.88006,-6.832076 -1.66496,-4.30593 -1.66496,-10.276819 0,-6.832076 2.18167,-11.425068 2.18168,-4.592991 6.14313,-6.9469 4.01887,-2.353908 9.30081,-2.353908 5.33935,0 9.30081,2.353908 3.96145,2.353909 6.14313,6.9469 2.18167,4.592992 2.18167,11.425068 0,5.798652 -1.60755,10.04717 -1.60755,4.191105 -4.53558,6.774663 -2.92803,2.583558 -7.00431,3.444744 V 83.5312 Z M 266.55479,73.024731 q 2.64097,0 4.47817,-1.148248 1.89461,-1.20566 2.87062,-3.444744 1.03342,-2.239083 1.03342,-5.396765 v -5.97089 q 0,-3.215094 -1.03342,-5.396765 -0.97601,-2.239084 -2.87062,-3.387332 -1.8372,-1.20566 -4.47817,-1.20566 -2.58356,0 -4.47817,1.20566 -1.89461,1.148248 -2.92803,3.387332 -0.97601,2.181671 -0.97601,5.396765 v 5.97089 q 0,3.157682 0.97601,5.396765 1.03342,2.239084 2.92803,3.444744 1.89461,1.148248 4.47817,1.148248 z"
         id="f_black_6"
         style="font-weight:bold;font-size:57.4124px;font-family:'IBM Plex Sans';-inkscape-font-specification:'IBM Plex Sans, Bold';fill:#000000;fill-opacity:1;stroke-width:0.264582"
         aria-label="Q"
         inkscape:label="f_black_6" />
      <path
         d="m 289.44385,40.012602 h 8.49704 v 24.572506 q 0,2.813208 0.68895,4.707817 0.74636,1.837197 2.3539,2.813208 1.60755,0.918598 4.19111,0.918598 2.58356,0 4.13369,-0.918598 1.60755,-0.976011 2.35391,-2.813208 0.74636,-1.894609 0.74636,-4.707817 V 40.012602 h 8.49704 V 63.66651 q 0,5.913477 -1.55014,9.702696 -1.55013,3.789218 -4.99488,5.626415 -3.44474,1.779784 -9.18598,1.779784 -5.74124,0 -9.18598,-1.779784 -3.44475,-1.837197 -4.99488,-5.626415 -1.55014,-3.789219 -1.55014,-9.702696 z"
         id="f_black_7"
         style="font-weight:bold;font-size:57.4124px;font-family:'IBM Plex Sans';-inkscape-font-specification:'IBM Plex Sans, Bold';display:inline;fill:#000000;fill-opacity:1;stroke-width:0.264582"
         aria-label="U"
         inkscape:label="f_black_7"
         transform="translate(-1.25e-6)" />
      <path
         id="f_black_8"
         style="font-weight:bold;font-size:57.4124px;font-family:'IBM Plex Sans';-inkscape-font-specification:'IBM Plex Sans, Bold';display:inline;fill:#000000;fill-opacity:1;stroke-width:0.264582"
         d="m 334.87611,40.012735 v 40.073522 h 21.81676 v -7.750431 h -13.09016 -5.45393 v -8.669238 h 5.45393 10.44898 v -7.693587 h -10.44898 -5.45393 v -8.209835 h 5.45393 13.09016 v -7.750431 z m 21.81676,0 v 7.750431 h 5.45393 v -7.750431 z m -2.64118,15.960266 v 7.693587 h 5.45445 v -7.693587 z m 2.64118,16.362825 v 7.750431 h 5.45393 v -7.750431 z m -12.05663,-48.341235 -5.68389,11.137821 5.05241,2.4691 7.69307,-10.104809 z m -15.21457,16.018144 v 40.073522 h 5.45444 V 40.012735 Z"
         transform="translate(-1.25e-6)"
         inkscape:label="f_black_8" />
    </g>
  </g>
  <g
     id="g43"
     inkscape:label="g-fra-top-white"
     transform="translate(293.21268,189.98718)"
     style="display:none;fill:#ffffff;fill-opacity:1"
     clip-path="url(#clipPath43)">
    <path
       d="M 51.427686,80.086456 V 40.012602 h 15.099461 q 5.339353,0 9.300809,2.239083 3.961455,2.239084 6.143126,6.717251 2.181672,4.420755 2.181672,11.080593 0,6.659838 -2.181672,11.138005 -2.181671,4.420755 -6.143126,6.659839 -3.961456,2.239083 -9.300809,2.239083 z m 8.726685,-7.750674 h 6.372776 q 2.583558,0 4.478167,-0.97601 1.894609,-0.976011 2.87062,-2.985445 1.033423,-2.066847 1.033423,-5.224528 v -6.20054 q 0,-3.215094 -1.033423,-5.224528 -0.976011,-2.009434 -2.87062,-2.985445 -1.894609,-0.976011 -4.478167,-0.976011 h -6.372776 z"
       id="f_white_1"
       style="font-weight:bold;font-size:57.4124px;font-family:'IBM Plex Sans';-inkscape-font-specification:'IBM Plex Sans, Bold';display:inline;fill:#ffffff;fill-opacity:1;stroke-width:0.264582"
       aria-label="D"
       inkscape:label="f_white_1"
       transform="translate(-1.25e-6)" />
    <path
       id="f_white_2"
       style="font-weight:bold;font-size:57.4124px;font-family:'IBM Plex Sans';-inkscape-font-specification:'IBM Plex Sans, Bold';display:inline;fill:#ffffff;fill-opacity:1;stroke-width:0.264582"
       d="m 96.121178,40.012735 v 40.073522 h 21.816752 v -7.750431 h -13.09015 -5.453933 v -8.669238 h 5.453933 10.44897 v -7.693587 h -10.44897 -5.453933 v -8.209835 h 5.453933 13.09015 v -7.750431 z m 21.816752,0 v 7.750431 h 5.45394 v -7.750431 z m -2.64118,15.960266 v 7.693587 h 5.45445 v -7.693587 z m 2.64118,16.362825 v 7.750431 h 5.45394 v -7.750431 z m -12.05662,-48.341235 -5.68389,11.137821 5.0524,2.4691 7.69307,-10.104809 z M 90.667248,40.012735 v 40.073522 h 5.45393 V 40.012735 Z"
       inkscape:label="f_white_2"
       transform="translate(-1.25e-6)" />
    <path
       d="M 131.48069,80.086456 V 40.012602 h 9.2434 l 5.33935,10.219407 4.47817,8.554447 h 0.11482 l 4.42076,-8.554447 5.28194,-10.219407 h 9.30081 v 40.073854 h -8.20998 v -20.094339 -6.20054 h -0.17223 l -2.92804,5.856065 -7.80808,14.180863 -7.63585,-14.12345 -3.04286,-6.315364 h -0.17224 v 6.602426 20.094339 z"
       id="f_white_3"
       style="font-weight:bold;font-size:57.4124px;font-family:'IBM Plex Sans';-inkscape-font-specification:'IBM Plex Sans, Bold';fill:#ffffff;fill-opacity:1;stroke-width:0.264582"
       aria-label="M"
       inkscape:label="f_white_3" />
    <path
       d="m 211.20161,80.086456 h -9.07115 l -2.87062,-9.530458 h -13.37709 l -2.87062,9.530458 h -8.84151 L 187.37547,40.012602 H 198.169 Z m -14.06603,-16.936657 -2.46874,-8.324798 -2.00943,-6.889488 h -0.28706 l -1.95202,6.889488 -2.46874,8.324798 z"
       id="f_white_4"
       style="font-weight:bold;font-size:57.4124px;font-family:'IBM Plex Sans';-inkscape-font-specification:'IBM Plex Sans, Bold';fill:#ffffff;fill-opacity:1;stroke-width:0.264582"
       aria-label="A"
       inkscape:label="f_white_4" />
    <path
       d="m 228.1583,80.775405 q -5.22453,0 -8.95633,-1.837197 -3.6744,-1.837196 -6.25795,-4.650404 l 5.74124,-5.798652 q 2.00943,2.296496 4.53558,3.444744 2.58355,1.148248 5.51159,1.148248 3.21509,0 4.76522,-1.320486 1.55014,-1.320485 1.55014,-3.502156 0,-1.090836 -0.40189,-1.952022 -0.34447,-0.918598 -1.3779,-1.492722 -0.97601,-0.631536 -2.87062,-0.861186 l -3.96145,-0.516711 q -4.19111,-0.574124 -6.9469,-2.066847 -2.69838,-1.550135 -4.01887,-4.018868 -1.32048,-2.526145 -1.32048,-5.856065 0,-3.616981 1.77978,-6.315363 1.8372,-2.755796 5.16712,-4.30593 3.38733,-1.550135 8.09514,-1.550135 4.53558,0 7.98033,1.492722 3.44474,1.43531 5.91348,4.133693 l -5.79866,5.856065 q -1.43531,-1.66496 -3.50215,-2.698383 -2.00944,-1.090836 -5.10971,-1.090836 -2.92803,0 -4.36334,1.033423 -1.43531,1.033424 -1.43531,2.87062 0,1.377898 0.4593,2.239084 0.51671,0.861186 1.55013,1.320485 1.09084,0.459299 2.7558,0.746361 l 3.96146,0.631537 q 4.13369,0.631536 6.83207,2.124259 2.69838,1.492722 4.01887,3.904043 1.32048,2.41132 1.32048,5.856064 0,3.846631 -1.83719,6.774664 -1.77979,2.928032 -5.28194,4.592992 -3.50216,1.664959 -8.49704,1.664959 z"
       id="f_white_5"
       style="font-weight:bold;font-size:57.4124px;font-family:'IBM Plex Sans';-inkscape-font-specification:'IBM Plex Sans, Bold';fill:#ffffff;fill-opacity:1;stroke-width:0.264582"
       aria-label="S"
       inkscape:label="f_white_5" />
    <path
       d="m 277.17608,83.5312 v 7.119138 h -5.39676 q -4.65041,0 -6.77467,-2.181671 -2.12425,-2.181672 -2.12425,-6.315364 v -1.66496 q -4.24852,-0.803773 -7.4062,-3.329919 -3.15769,-2.583558 -4.88006,-6.832076 -1.66496,-4.30593 -1.66496,-10.276819 0,-6.832076 2.18167,-11.425068 2.18168,-4.592991 6.14313,-6.9469 4.01887,-2.353908 9.30081,-2.353908 5.33935,0 9.30081,2.353908 3.96145,2.353909 6.14313,6.9469 2.18167,4.592992 2.18167,11.425068 0,5.798652 -1.60755,10.04717 -1.60755,4.191105 -4.53558,6.774663 -2.92803,2.583558 -7.00431,3.444744 V 83.5312 Z M 266.55479,73.024731 q 2.64097,0 4.47817,-1.148248 1.89461,-1.20566 2.87062,-3.444744 1.03342,-2.239083 1.03342,-5.396765 v -5.97089 q 0,-3.215094 -1.03342,-5.396765 -0.97601,-2.239084 -2.87062,-3.387332 -1.8372,-1.20566 -4.47817,-1.20566 -2.58356,0 -4.47817,1.20566 -1.89461,1.148248 -2.92803,3.387332 -0.97601,2.181671 -0.97601,5.396765 v 5.97089 q 0,3.157682 0.97601,5.396765 1.03342,2.239084 2.92803,3.444744 1.89461,1.148248 4.47817,1.148248 z"
       id="f_white_6"
       style="font-weight:bold;font-size:57.4124px;font-family:'IBM Plex Sans';-inkscape-font-specification:'IBM Plex Sans, Bold';fill:#ffffff;fill-opacity:1;stroke-width:0.264582"
       aria-label="Q"
       inkscape:label="f_white_6" />
    <path
       d="m 289.44385,40.012602 h 8.49704 v 24.572506 q 0,2.813208 0.68895,4.707817 0.74636,1.837197 2.3539,2.813208 1.60755,0.918598 4.19111,0.918598 2.58356,0 4.13369,-0.918598 1.60755,-0.976011 2.35391,-2.813208 0.74636,-1.894609 0.74636,-4.707817 V 40.012602 h 8.49704 V 63.66651 q 0,5.913477 -1.55014,9.702696 -1.55013,3.789218 -4.99488,5.626415 -3.44474,1.779784 -9.18598,1.779784 -5.74124,0 -9.18598,-1.779784 -3.44475,-1.837197 -4.99488,-5.626415 -1.55014,-3.789219 -1.55014,-9.702696 z"
       id="f_white_7"
       style="font-weight:bold;font-size:57.4124px;font-family:'IBM Plex Sans';-inkscape-font-specification:'IBM Plex Sans, Bold';fill:#ffffff;fill-opacity:1;stroke-width:0.264582"
       aria-label="U"
       inkscape:label="f_white_7" />
    <path
       id="f_white_8"
       style="font-weight:bold;font-size:57.4124px;font-family:'IBM Plex Sans';-inkscape-font-specification:'IBM Plex Sans, Bold';display:inline;fill:#ffffff;fill-opacity:1;stroke-width:0.264582"
       d="m 334.87611,40.012735 v 40.073522 h 21.81676 v -7.750431 h -13.09016 -5.45393 v -8.669238 h 5.45393 10.44898 v -7.693587 h -10.44898 -5.45393 v -8.209835 h 5.45393 13.09016 v -7.750431 z m 21.81676,0 v 7.750431 h 5.45393 v -7.750431 z m -2.64118,15.960266 v 7.693587 h 5.45445 v -7.693587 z m 2.64118,16.362825 v 7.750431 h 5.45393 v -7.750431 z m -12.05663,-48.341235 -5.68389,11.137821 5.05241,2.4691 7.69307,-10.104809 z m -15.21457,16.018144 v 40.073522 h 5.45444 V 40.012735 Z"
       inkscape:label="f_white_8"
       transform="translate(-1.25e-6)" />
  </g>
  <rect
     style="display:none;fill:#ffffff;fill-opacity:1;stroke-width:0.264583"
     id="rect1"
     width="1000"
     height="250"
     x="0"
     y="250"
     ry="3.6638081"
     inkscape:label="White" />
</svg>
