<svg xmlns:xlink="http://www.w3.org/1999/xlink" viewBox="0 0 1920 1080" xmlns="http://www.w3.org/2000/svg">
 <rect fill="rgba(0, 0, 0, 0)" width="1920" height="1080"/>
 <g transform="translate(960 540)">
  <g transform="translate(0 0)">
   <g transform="rotate(0)">
    <g transform="scale(1 1)">
     <g transform="skewX(0) skewY(0)">
      <g transform="translate(-960 -540)" opacity="1">
       <rect fill="rgba(255, 150, 150, 1)" x="0" stroke-width="10" y="0" id="white" rx="0" ry="0" stroke="none" stroke-linejoin="round" stroke-linecap="round" width="1920" height="1080"/>
      </g>
     </g>
    </g>
   </g>
  </g>
 </g>
 <g transform="translate(206.787 57.3004)">
  <g transform="translate(754.579 477.699)">
   <g transform="rotate(0)">
    <g transform="scale(2 2)">
     <g transform="skewX(0) skewY(0)">
      <g transform="translate(-206.787 -57.3004)" opacity="1">
       <path fill-rule="evenodd" fill="rgba(0, 0, 0, 1)" stroke-width="0.264582" id="f_red_1" stroke="none" stroke-linejoin="miter" stroke-linecap="butt" d="M105.881 23.9946C105.881 23.9946 100.197 35.1324 100.197 35.1324C100.197 35.1324 105.25 37.6015 105.25 37.6015C105.25 37.6015 112.943 27.4967 112.943 27.4967C112.943 27.4967 105.881 23.9946 105.881 23.9946ZM344.636 23.9946C344.636 23.9946 338.952 35.1324 338.952 35.1324C338.952 35.1324 344.005 37.6015 344.005 37.6015C344.005 37.6015 351.698 27.4967 351.698 27.4967C351.698 27.4967 344.636 23.9946 344.636 23.9946ZM229.192 39.3239C226.053 39.3239 223.355 39.8402 221.096 40.8737C218.877 41.9071 217.154 43.3427 215.929 45.1799C214.743 46.9788 214.15 49.0839 214.15 51.4952C214.15 53.7152 214.59 55.6671 215.47 57.3512C216.35 58.997 217.69 60.3367 219.489 61.3701C221.326 62.3652 223.642 63.0539 226.436 63.4366C226.436 63.4366 230.397 63.9534 230.397 63.9534C231.66 64.1065 232.617 64.3938 233.268 64.8148C233.957 65.1976 234.416 65.6949 234.646 66.3073C234.914 66.8814 235.048 67.5324 235.048 68.2596C235.048 69.714 234.531 70.8814 233.498 71.7617C232.464 72.642 230.876 73.082 228.732 73.082C226.78 73.082 224.943 72.6993 223.221 71.9338C221.537 71.1683 220.025 70.02 218.685 68.489C218.685 68.489 212.944 74.2877 212.944 74.2877C214.666 76.1631 216.752 77.7132 219.202 78.938C221.69 80.1628 224.675 80.7756 228.158 80.7756C231.488 80.7756 234.32 80.2206 236.655 79.1106C238.99 78.0006 240.751 76.4696 241.937 74.5176C243.162 72.5656 243.775 70.3073 243.775 67.7428C243.775 65.4463 243.334 63.4944 242.454 61.8869C241.574 60.2793 240.234 58.9778 238.435 57.9827C236.636 56.9876 234.359 56.2793 231.603 55.8583C231.603 55.8583 227.642 55.2268 227.642 55.2268C226.532 55.0354 225.613 54.7868 224.886 54.4806C224.197 54.1744 223.68 53.7344 223.336 53.1603C223.029 52.5861 222.876 51.8397 222.876 50.9211C222.876 49.6963 223.355 48.7394 224.312 48.0505C225.269 47.3615 226.723 47.017 228.675 47.017C230.742 47.017 232.445 47.3806 233.785 48.1079C235.162 48.7968 236.33 49.6964 237.287 50.8064C237.287 50.8064 243.085 44.9499 243.085 44.9499C241.44 43.151 239.468 41.7732 237.172 40.8163C234.876 39.8212 232.215 39.3239 229.192 39.3239C229.192 39.3239 229.192 39.3239 229.192 39.3239ZM266.555 39.3239C263.033 39.3239 259.933 40.1085 257.254 41.6777C254.613 43.247 252.565 45.5626 251.111 48.6246C249.656 51.6866 248.929 55.495 248.929 60.0498C248.929 64.0303 249.484 67.4555 250.594 70.3261C251.742 73.1585 253.369 75.4359 255.474 77.1583C257.579 78.8424 260.048 79.9524 262.881 80.4883C262.881 80.4883 262.881 82.1533 262.881 82.1533C262.881 84.9091 263.588 87.0142 265.004 88.4687C266.421 89.9231 268.679 90.6505 271.779 90.6505C271.779 90.6505 277.176 90.6505 277.176 90.6505C277.176 90.6505 277.176 83.531 277.176 83.531C277.176 83.531 271.033 83.531 271.033 83.531C271.033 83.531 271.033 80.3162 271.033 80.3162C273.751 79.7421 276.085 78.5938 278.037 76.8715C279.989 75.1491 281.501 72.8908 282.573 70.0967C283.645 67.2643 284.181 63.9155 284.181 60.0498C284.181 55.495 283.453 51.6866 281.999 48.6246C280.544 45.5626 278.496 43.247 275.855 41.6777C273.214 40.1085 270.114 39.3239 266.555 39.3239C266.555 39.3239 266.555 39.3239 266.555 39.3239ZM51.4278 40.0127C51.4278 40.0127 51.4278 80.0863 51.4278 80.0863C51.4278 80.0863 66.5271 80.0863 66.5271 80.0863C70.0867 80.0863 73.1869 79.3398 75.8278 77.8471C78.4688 76.3544 80.5167 74.1348 81.9711 71.1876C83.4256 68.2021 84.1529 64.4896 84.1529 60.0498C84.1529 55.6099 83.4256 51.9159 81.9711 48.9688C80.5167 45.9833 78.4688 43.7446 75.8278 42.2519C73.1869 40.7592 70.0867 40.0127 66.5271 40.0127C66.5271 40.0127 51.4278 40.0127 51.4278 40.0127ZM90.6673 40.0127C90.6673 40.0127 90.6673 80.0863 90.6673 80.0863C90.6673 80.0863 96.1212 80.0863 96.1212 80.0863C96.1212 80.0863 117.938 80.0863 117.938 80.0863C117.938 80.0863 123.392 80.0863 123.392 80.0863C123.392 80.0863 123.392 72.3358 123.392 72.3358C123.392 72.3358 117.938 72.3358 117.938 72.3358C117.938 72.3358 104.848 72.3358 104.848 72.3358C104.848 72.3358 99.3939 72.3358 99.3939 72.3358C99.3939 72.3358 99.3939 63.6666 99.3939 63.6666C99.3939 63.6666 104.848 63.6666 104.848 63.6666C104.848 63.6666 115.297 63.6666 115.297 63.6666C115.297 63.6666 120.751 63.6666 120.751 63.6666C120.751 63.6666 120.751 55.973 120.751 55.973C120.751 55.973 115.297 55.973 115.297 55.973C115.297 55.973 104.848 55.973 104.848 55.973C104.848 55.973 99.3939 55.973 99.3939 55.973C99.3939 55.973 99.3939 47.7632 99.3939 47.7632C99.3939 47.7632 104.848 47.7632 104.848 47.7632C104.848 47.7632 117.938 47.7632 117.938 47.7632C117.938 47.7632 123.392 47.7632 123.392 47.7632C123.392 47.7632 123.392 40.0127 123.392 40.0127C123.392 40.0127 117.938 40.0127 117.938 40.0127C117.938 40.0127 96.1212 40.0127 96.1212 40.0127C96.1212 40.0127 90.6673 40.0127 90.6673 40.0127ZM131.481 40.0127C131.481 40.0127 131.481 80.0863 131.481 80.0863C131.481 80.0863 139.691 80.0863 139.691 80.0863C139.691 80.0863 139.691 59.9919 139.691 59.9919C139.691 59.9919 139.691 53.3897 139.691 53.3897C139.691 53.3897 139.863 53.3897 139.863 53.3897C139.863 53.3897 142.906 59.7051 142.906 59.7051C142.906 59.7051 150.542 73.8288 150.542 73.8288C150.542 73.8288 158.35 59.6477 158.35 59.6477C158.35 59.6477 161.278 53.7917 161.278 53.7917C161.278 53.7917 161.45 53.7917 161.45 53.7917C161.45 53.7917 161.45 59.9919 161.45 59.9919C161.45 59.9919 161.45 80.0863 161.45 80.0863C161.45 80.0863 169.66 80.0863 169.66 80.0863C169.66 80.0863 169.66 40.0127 169.66 40.0127C169.66 40.0127 160.359 40.0127 160.359 40.0127C160.359 40.0127 155.077 50.2323 155.077 50.2323C155.077 50.2323 150.656 58.7863 150.656 58.7863C150.656 58.7863 150.542 58.7863 150.542 58.7863C150.542 58.7863 146.063 50.2323 146.063 50.2323C146.063 50.2323 140.724 40.0127 140.724 40.0127C140.724 40.0127 131.481 40.0127 131.481 40.0127ZM187.376 40.0127C187.376 40.0127 174.171 80.0863 174.171 80.0863C174.171 80.0863 183.012 80.0863 183.012 80.0863C183.012 80.0863 185.883 70.5561 185.883 70.5561C185.883 70.5561 199.26 70.5561 199.26 70.5561C199.26 70.5561 202.13 80.0863 202.13 80.0863C202.13 80.0863 211.201 80.0863 211.201 80.0863C211.201 80.0863 198.169 40.0127 198.169 40.0127C198.169 40.0127 187.376 40.0127 187.376 40.0127ZM289.444 40.0127C289.444 40.0127 289.444 63.6666 289.444 63.6666C289.444 67.6089 289.961 70.8432 290.994 73.3694C292.027 75.8955 293.693 77.7706 295.989 78.9954C298.286 80.1819 301.348 80.7756 305.175 80.7756C309.003 80.7756 312.065 80.1819 314.361 78.9954C316.658 77.7706 318.322 75.8955 319.356 73.3694C320.389 70.8432 320.906 67.6089 320.906 63.6666C320.906 63.6666 320.906 40.0127 320.906 40.0127C320.906 40.0127 312.409 40.0127 312.409 40.0127C312.409 40.0127 312.409 64.5849 312.409 64.5849C312.409 66.4604 312.16 68.03 311.662 69.2931C311.165 70.5179 310.38 71.4557 309.309 72.1064C308.275 72.7188 306.897 73.0247 305.175 73.0247C303.453 73.0247 302.055 72.7188 300.984 72.1064C299.912 71.4557 299.127 70.5179 298.63 69.2931C298.17 68.03 297.941 66.4603 297.941 64.5849C297.941 64.5849 297.941 40.0127 297.941 40.0127C297.941 40.0127 289.444 40.0127 289.444 40.0127ZM329.422 40.0127C329.422 40.0127 329.422 80.0863 329.422 80.0863C329.422 80.0863 334.876 80.0863 334.876 80.0863C334.876 80.0863 356.693 80.0863 356.693 80.0863C356.693 80.0863 362.147 80.0863 362.147 80.0863C362.147 80.0863 362.147 72.3358 362.147 72.3358C362.147 72.3358 356.693 72.3358 356.693 72.3358C356.693 72.3358 343.603 72.3358 343.603 72.3358C343.603 72.3358 338.149 72.3358 338.149 72.3358C338.149 72.3358 338.149 63.6666 338.149 63.6666C338.149 63.6666 343.603 63.6666 343.603 63.6666C343.603 63.6666 354.052 63.6666 354.052 63.6666C354.052 63.6666 359.506 63.6666 359.506 63.6666C359.506 63.6666 359.506 55.973 359.506 55.973C359.506 55.973 354.052 55.973 354.052 55.973C354.052 55.973 343.603 55.973 343.603 55.973C343.603 55.973 338.149 55.973 338.149 55.973C338.149 55.973 338.149 47.7632 338.149 47.7632C338.149 47.7632 343.603 47.7632 343.603 47.7632C343.603 47.7632 356.693 47.7632 356.693 47.7632C356.693 47.7632 362.147 47.7632 362.147 47.7632C362.147 47.7632 362.147 40.0127 362.147 40.0127C362.147 40.0127 356.693 40.0127 356.693 40.0127C356.693 40.0127 334.876 40.0127 334.876 40.0127C334.876 40.0127 329.422 40.0127 329.422 40.0127ZM266.555 47.0743C268.315 47.0743 269.808 47.4762 271.033 48.2799C272.296 49.0454 273.253 50.1746 273.904 51.6673C274.593 53.1218 274.937 54.9205 274.937 57.0639C274.937 57.0639 274.937 63.0351 274.937 63.0351C274.937 65.1402 274.593 66.9389 273.904 68.4317C273.253 69.9244 272.296 71.0726 271.033 71.8764C269.808 72.6419 268.315 73.0247 266.555 73.0247C264.832 73.0247 263.339 72.6419 262.076 71.8764C260.813 71.0726 259.837 69.9244 259.148 68.4317C258.498 66.9389 258.173 65.1402 258.173 63.0351C258.173 63.0351 258.173 57.0639 258.173 57.0639C258.173 54.9205 258.498 53.1218 259.148 51.6673C259.837 50.1746 260.813 49.0454 262.076 48.2799C263.34 47.4762 264.832 47.0743 266.555 47.0743ZM60.1544 47.7632C60.1544 47.7632 66.5271 47.7632 66.5271 47.7632C68.2495 47.7632 69.7423 48.0887 71.0054 48.7393C72.2685 49.39 73.2253 50.3851 73.876 51.7247C74.565 53.0643 74.9096 54.8058 74.9096 56.9492C74.9096 56.9492 74.9096 63.1498 74.9096 63.1498C74.9096 65.2549 74.565 66.9964 73.876 68.3743C73.2253 69.7139 72.2685 70.709 71.0054 71.3597C69.7423 72.0103 68.2495 72.3358 66.5271 72.3358C66.5271 72.3358 60.1544 72.3358 60.1544 72.3358C60.1544 72.3358 60.1544 47.7632 60.1544 47.7632ZM192.371 47.9358C192.371 47.9358 192.657 47.9358 192.657 47.9358C192.657 47.9358 194.667 54.8247 194.667 54.8247C194.667 54.8247 197.136 63.1498 197.136 63.1498C197.136 63.1498 187.95 63.1498 187.95 63.1498C187.95 63.1498 190.418 54.8247 190.418 54.8247C190.418 54.8247 192.371 47.9358 192.371 47.9358Z"/>
      </g>
     </g>
    </g>
   </g>
  </g>
 </g>
 <defs/>
</svg>