<?xml version="1.0" encoding="UTF-8" standalone="no"?>
<!-- Created with Inkscape (http://www.inkscape.org/) -->

<svg
   width="1000mm"
   height="600mm"
   viewBox="0 0 1000 600"
   version="1.1"
   id="svg1"
   xmlns="http://www.w3.org/2000/svg"
   xmlns:svg="http://www.w3.org/2000/svg">
  <defs
     id="defs1">
    <rect
       x="-163.69377"
       y="-2050.9866"
       width="1030.3077"
       height="674.03314"
       id="rect4" />
    <clipPath
       clipPathUnits="userSpaceOnUse"
       id="clipPath28">
      <rect
         style="fill:#5c5c5c;fill-opacity:1;stroke-width:0.264583"
         id="rect28"
         width="1000"
         height="250"
         x="0"
         y="0"
         ry="3.6638081" />
    </clipPath>
    <clipPath
       clipPathUnits="userSpaceOnUse"
       id="clipPath30">
      <rect
         style="display:inline;fill:#dfdfdf;fill-opacity:1;stroke-width:0.264583"
         id="rect31"
         width="1000"
         height="250"
         x="0"
         y="250"
         ry="3.6638081" />
    </clipPath>
    <clipPath
       clipPathUnits="userSpaceOnUse"
       id="clipPath69">
      <rect
         style="display:inline;fill:#5c5c5c;fill-opacity:1;stroke-width:0.264583"
         id="rect69"
         width="1000"
         height="250"
         x="0"
         y="0"
         ry="3.6638081" />
    </clipPath>
    <clipPath
       clipPathUnits="userSpaceOnUse"
       id="clipPath32">
      <rect
         style="fill:#e6c300;fill-opacity:1;stroke-width:0.264583"
         id="rect33"
         width="20.36558"
         height="50.870243"
         x="141.68498"
         y="211.2601"
         ry="0" />
    </clipPath>
    <clipPath
       clipPathUnits="userSpaceOnUse"
       id="clipPath32-1">
      <rect
         style="fill:#e6c300;fill-opacity:1;stroke-width:0.264583"
         id="rect33-9"
         width="20.36558"
         height="50.870243"
         x="141.68498"
         y="211.2601"
         ry="0" />
    </clipPath>
    <clipPath
       clipPathUnits="userSpaceOnUse"
       id="clipPath32-0">
      <rect
         style="fill:#e6c300;fill-opacity:1;stroke-width:0.264583"
         id="rect33-4"
         width="20.36558"
         height="50.870243"
         x="141.68498"
         y="211.2601"
         ry="0" />
    </clipPath>
    <clipPath
       clipPathUnits="userSpaceOnUse"
       id="clipPath51">
      <rect
         style="display:inline;fill:#5c5c5c;fill-opacity:1;stroke-width:0.264583"
         id="rect51"
         width="1000"
         height="250"
         x="-293.21271"
         y="-130.7747"
         ry="3.6638081" />
    </clipPath>
    <clipPath
       clipPathUnits="userSpaceOnUse"
       id="clipPath52">
      <rect
         style="display:inline;fill:#dfdfdf;fill-opacity:1;stroke-width:0.264583"
         id="rect52"
         width="1000"
         height="250"
         x="-293.21271"
         y="119.22529"
         ry="3.6638081" />
    </clipPath>
    <clipPath
       clipPathUnits="userSpaceOnUse"
       id="clipPath70">
      <rect
         style="display:inline;fill:#5c5c5c;fill-opacity:1;stroke-width:0.264583"
         id="rect70"
         width="1000"
         height="250"
         x="-293.21268"
         y="-190.03172"
         ry="3.6638081" />
    </clipPath>
    <clipPath
       clipPathUnits="userSpaceOnUse"
       id="clipPath72">
      <rect
         style="display:inline;fill:#dfdfdf;fill-opacity:1;stroke-width:0.264583"
         id="rect73"
         width="1000"
         height="250"
         x="-293.21268"
         y="59.968281"
         ry="3.6638081" />
    </clipPath>
    <clipPath
       clipPathUnits="userSpaceOnUse"
       id="clipPath21">
      <rect
         style="display:inline;fill:#000000;fill-opacity:1;stroke-width:0.264583"
         id="rect22"
         width="1000"
         height="250"
         x="-293.21271"
         y="-128.12886"
         ry="3.6638081" />
    </clipPath>
    <clipPath
       clipPathUnits="userSpaceOnUse"
       id="clipPath22">
      <rect
         style="display:inline;fill:#dfdfdf;fill-opacity:1;stroke-width:0.264583"
         id="rect23"
         width="1000"
         height="250"
         x="-293.21271"
         y="121.87114"
         ry="3.6638081" />
    </clipPath>
    <clipPath
       clipPathUnits="userSpaceOnUse"
       id="clipPath43">
      <rect
         style="display:inline;fill:#000000;fill-opacity:1;stroke-width:0.264583"
         id="rect43"
         width="1000"
         height="250"
         x="-293.21268"
         y="-189.98718"
         ry="3.6638081" />
    </clipPath>
    <clipPath
       clipPathUnits="userSpaceOnUse"
       id="clipPath44">
      <rect
         style="display:inline;fill:#dfdfdf;fill-opacity:1;stroke-width:0.264583"
         id="rect44"
         width="1000"
         height="250"
         x="-293.21268"
         y="60.012821"
         ry="3.6638081" />
    </clipPath>
  </defs>
  <rect
     style="display:inline;fill:#ebebeb;fill-opacity:1;stroke:#010101;stroke-width:0.264582;-inkscape-stroke:none"
     id="rect1"
     width="999.73541"
     height="599.73541"
     x="0.1322915"
     y="0.1322915"
     ry="0" />
  <path
     id="f_red_1"
     style="font-weight:bold;font-size:57.4124px;font-family:'IBM Plex Sans';-inkscape-font-specification:'IBM Plex Sans, Bold';display:inline;fill:#000000;fill-opacity:1;stroke-width:0.264582"
     d="m 399.09399,213.98177 -5.68389,11.13782 5.0524,2.4691 7.69307,-10.10481 z m 238.75493,0 -5.68389,11.13782 5.05241,2.4691 7.69307,-10.10481 z m -115.44463,15.3293 c -3.13854,0 -5.83689,0.51635 -8.09511,1.54977 -2.21995,1.03343 -3.94233,2.469 -5.16713,4.3062 -1.18652,1.79892 -1.77974,3.90406 -1.77974,6.31538 0,2.21994 0.44002,4.17187 1.32034,5.85597 0.88032,1.64582 2.21995,2.98545 4.01887,4.01888 1.8372,0.99515 4.15279,1.68379 6.94686,2.06654 l 3.96152,0.51676 c 1.26307,0.1531 2.21995,0.44042 2.87063,0.86145 0.68895,0.38275 1.14856,0.88001 1.37821,1.49241 0.26792,0.57413 0.40152,1.22511 0.40152,1.95234 0,1.45445 -0.51635,2.62179 -1.54977,3.50211 -1.03342,0.88033 -2.62221,1.32033 -4.7656,1.32033 -1.95203,0 -3.78893,-0.38275 -5.5113,-1.14825 -1.6841,-0.7655 -3.19602,-1.91375 -4.53564,-3.44475 l -5.74125,5.79862 c 1.72237,1.87547 3.80842,3.42556 6.25802,4.65036 2.48786,1.2248 5.47302,1.83761 8.95604,1.83761 3.32992,0 6.16238,-0.55504 8.49716,-1.66501 2.33476,-1.10998 4.09532,-2.64098 5.28184,-4.593 1.2248,-1.95203 1.83762,-4.21036 1.83762,-6.77479 0,-2.29649 -0.44053,-4.24842 -1.32085,-5.85597 -0.88033,-1.60755 -2.21996,-2.90901 -4.01888,-3.90415 -1.79892,-0.99515 -4.07635,-1.7034 -6.83214,-2.12442 l -3.961,-0.63149 c -1.10997,-0.19137 -2.02867,-0.44001 -2.7559,-0.74621 -0.68895,-0.30619 -1.20582,-0.7462 -1.55029,-1.32033 -0.3062,-0.57412 -0.45941,-1.32054 -0.45941,-2.23914 0,-1.2248 0.4787,-2.18167 1.43557,-2.87062 0.95688,-0.68895 2.41102,-1.03353 4.36304,-1.03353 2.06685,0 3.77014,0.36366 5.10977,1.09089 1.37789,0.68895 2.54524,1.58857 3.50211,2.69854 l 5.79861,-5.85649 c -1.64582,-1.79892 -3.61684,-3.17672 -5.91333,-4.1336 -2.2965,-0.99515 -4.95667,-1.49241 -7.98039,-1.49241 z m 37.36309,0 c -3.52129,0 -6.62147,0.78459 -9.30072,2.35386 -2.64097,1.56927 -4.68884,3.88487 -6.1433,6.94686 -1.45444,3.062 -2.18126,6.87043 -2.18126,11.42514 0,3.9806 0.55453,7.40576 1.6645,10.27638 1.14825,2.83235 2.7752,5.10977 4.88032,6.83214 2.10512,1.6841 4.57392,2.79418 7.40627,3.33003 v 1.66501 c 0,2.7558 0.70773,4.86093 2.1239,6.31538 1.41617,1.45445 3.67451,2.18178 6.77478,2.18178 h 5.39709 v -7.11946 h -6.1433 v -3.21479 c 2.71752,-0.57413 5.05221,-1.72238 7.00423,-3.44475 1.95202,-1.72238 3.46394,-3.98071 4.53564,-6.77478 1.0717,-2.83235 1.60765,-6.18117 1.60765,-10.04694 0,-4.55471 -0.72733,-8.36314 -2.18178,-11.42514 -1.45445,-3.06199 -3.50233,-5.37759 -6.14329,-6.94686 -2.64098,-1.56927 -5.74116,-2.35386 -9.30073,-2.35386 z m -215.12692,0.68884 v 40.07353 h 15.09934 c 3.55957,0 6.65975,-0.74642 9.30072,-2.23914 2.64097,-1.49273 4.68885,-3.71237 6.1433,-6.65954 1.45445,-2.98545 2.18178,-6.69793 2.18178,-11.13783 0,-4.43989 -0.72733,-8.1338 -2.18178,-11.08097 -1.45445,-2.98545 -3.50233,-5.22418 -6.1433,-6.71691 -2.64097,-1.49272 -5.74115,-2.23914 -9.30072,-2.23914 z m 39.23947,0 v 40.07353 h 5.45393 21.81675 5.45394 v -7.75043 h -5.45394 -13.09015 -5.45393 v -8.66924 h 5.45393 10.44897 5.45445 v -7.69359 h -5.45445 -10.44897 -5.45393 v -8.20983 h 5.45393 13.09015 5.45394 v -7.75044 h -5.45394 -21.81675 z m 40.81353,0 v 40.07353 h 8.20983 v -20.09438 -6.60218 h 0.17208 l 3.04323,6.31537 7.63571,14.12369 7.80831,-14.18105 2.92798,-5.85597 h 0.17209 v 6.20014 20.09438 h 8.20983 v -40.07353 h -9.30072 l -5.28185,10.21954 -4.42092,8.554 h -0.11472 l -4.47828,-8.554 -5.33921,-10.21954 z m 55.89478,0 -13.20488,40.07353 h 8.84132 l 2.87062,-9.53017 h 13.37697 l 2.87062,9.53017 h 9.07128 l -13.03228,-40.07353 z m 102.06818,0 v 23.65386 c 0,3.94232 0.51687,7.17662 1.5503,9.70276 1.03342,2.52615 2.69854,4.40122 4.99504,5.62602 2.2965,1.18652 5.35851,1.78025 9.186,1.78025 3.8275,0 6.88951,-0.59373 9.18601,-1.78025 2.2965,-1.2248 3.9611,-3.09987 4.99452,-5.62602 1.03343,-2.52614 1.5503,-5.76044 1.5503,-9.70276 v -23.65386 h -8.49716 v 24.57215 c 0,1.87547 -0.24863,3.44516 -0.74621,4.70824 -0.49757,1.2248 -1.28216,2.16259 -2.35386,2.81326 -1.03342,0.6124 -2.41122,0.91829 -4.1336,0.91829 -1.72237,0 -3.11977,-0.30589 -4.19147,-0.91829 -1.07169,-0.65067 -1.85629,-1.58846 -2.35386,-2.81326 -0.4593,-1.26308 -0.68885,-2.83277 -0.68885,-4.70824 v -24.57215 z m 39.97793,0 v 40.07353 h 5.45444 21.81676 5.45393 v -7.75043 h -5.45393 -13.09016 -5.45393 v -8.66924 h 5.45393 10.44898 5.45445 v -7.69359 h -5.45445 -10.44898 -5.45393 v -8.20983 h 5.45393 13.09016 5.45393 v -7.75044 h -5.45393 -21.81676 z m -62.86697,7.06159 c 1.76065,0 3.25348,0.40184 4.47828,1.20561 1.26308,0.7655 2.21995,1.89467 2.87063,3.38739 0.68894,1.45445 1.03353,3.25317 1.03353,5.39657 v 5.97121 c 0,2.10512 -0.34459,3.90385 -1.03353,5.39657 -0.65068,1.49272 -1.60755,2.64098 -2.87063,3.44475 -1.2248,0.7655 -2.71763,1.14825 -4.47828,1.14825 -1.72237,0 -3.2152,-0.38275 -4.47828,-1.14825 -1.26307,-0.80377 -2.23904,-1.95203 -2.92798,-3.44475 -0.65068,-1.49272 -0.97565,-3.29145 -0.97565,-5.39657 v -5.97121 c 0,-2.1434 0.32497,-3.94212 0.97565,-5.39657 0.68894,-1.49272 1.66491,-2.62189 2.92798,-3.38739 1.26308,-0.80377 2.75591,-1.20561 4.47828,-1.20561 z m -206.40032,0.68885 h 6.37274 c 1.72237,0 3.21521,0.32549 4.47828,0.97616 1.26307,0.65068 2.21995,1.64573 2.87062,2.98535 0.68895,1.33962 1.03353,3.08109 1.03353,5.22449 v 6.20065 c 0,2.10512 -0.34458,3.84659 -1.03353,5.22449 -0.65067,1.33962 -1.60755,2.33467 -2.87062,2.98535 -1.26307,0.65067 -2.75591,0.97617 -4.47828,0.97617 h -6.37274 z m 132.21622,0.17259 h 0.2868 l 2.00918,6.88899 2.4691,8.32507 h -9.186 l 2.46858,-8.32507 z"
     transform="translate(3.0000001e-5,52.690289)" />
</svg>
